<svg xmlns="http://www.w3.org/2000/svg">
<defs>
<style>
.img { display: none }
.img:target { display: inline }
</style>
</defs>
<svg width="9" height="8" viewBox="0 0 9 8" fill="none">
<g id="menu-marker" class="img"><rect x="0.272217" y="4" width="6" height="6" rx="1" transform="rotate(-45 0.272217 4)" fill="white"/></g>
</svg>
<svg width="33" height="33" viewBox="0 0 33 33" fill="none">
<g id="icon-music" class="img"><path d="M8.66683 25.264C11.6082 25.264 14.0002 22.872 14.0002 19.9306V6.40396L26.0002 10.7666V20.6733C25.1933 20.1926 24.2727 19.9362 23.3335 19.9306C20.3922 19.9306 18.0002 22.3226 18.0002 25.264C18.0002 28.2053 20.3922 30.5973 23.3335 30.5973C26.2748 30.5973 28.6668 28.2053 28.6668 25.264V9.8333C28.667 9.55974 28.5829 9.29276 28.4259 9.06873C28.2689 8.8447 28.0467 8.6745 27.7895 8.5813L13.1228 3.24796C12.9215 3.17436 12.7054 3.15044 12.4928 3.17824C12.2802 3.20603 12.0775 3.28472 11.9019 3.40762C11.7262 3.53052 11.5828 3.694 11.4839 3.88417C11.3849 4.07435 11.3333 4.28559 11.3335 4.49996V15.34C10.5267 14.8592 9.60601 14.6028 8.66683 14.5973C5.7255 14.5973 3.3335 16.9893 3.3335 19.9306C3.3335 22.872 5.7255 25.264 8.66683 25.264Z" fill="#191919" fill-opacity="0.3"/></g>
<g id="icon-time" class="img"><path d="M16.6668 3.16663C24.0308 3.16663 30.0002 9.13596 30.0002 16.5C30.0002 23.864 24.0308 29.8333 16.6668 29.8333C9.30283 29.8333 3.3335 23.864 3.3335 16.5C3.3335 9.13596 9.30283 3.16663 16.6668 3.16663ZM16.6668 8.49996C16.3132 8.49996 15.9741 8.64044 15.724 8.89048C15.474 9.14053 15.3335 9.47967 15.3335 9.83329V16.5C15.3336 16.8536 15.4741 17.1926 15.7242 17.4426L19.7242 21.4426C19.9756 21.6855 20.3124 21.8199 20.662 21.8169C21.0116 21.8138 21.346 21.6736 21.5933 21.4264C21.8405 21.1792 21.9807 20.8448 21.9837 20.4952C21.9868 20.1456 21.8524 19.8088 21.6095 19.5573L18.0002 15.948V9.83329C18.0002 9.47967 17.8597 9.14053 17.6096 8.89048C17.3596 8.64044 17.0205 8.49996 16.6668 8.49996Z" fill="#191919" fill-opacity="0.3"/></g>
<g id="icon-person" class="img"><path d="M21.4569 4.53625C20.2406 3.22313 18.5419 2.5 16.6669 2.5C14.7819 2.5 13.0775 3.21875 11.8669 4.52375C10.6431 5.84312 10.0469 7.63625 10.1869 9.5725C10.4644 13.3925 13.3712 16.5 16.6669 16.5C19.9625 16.5 22.8644 13.3931 23.1462 9.57375C23.2881 7.655 22.6881 5.86563 21.4569 4.53625ZM27.6669 30.5H5.66686C5.3789 30.5037 5.09373 30.4433 4.83209 30.3229C4.57045 30.2026 4.33893 30.0254 4.15436 29.8044C3.74811 29.3188 3.58436 28.6556 3.70561 27.985C4.23311 25.0588 5.87936 22.6006 8.46686 20.875C10.7656 19.3431 13.6775 18.5 16.6669 18.5C19.6562 18.5 22.5681 19.3438 24.8669 20.875C27.4544 22.6 29.1006 25.0581 29.6281 27.9844C29.7494 28.655 29.5856 29.3181 29.1794 29.8037C28.9949 30.0249 28.7634 30.2022 28.5017 30.3226C28.2401 30.4431 27.9549 30.5037 27.6669 30.5Z" fill="#191919" fill-opacity="0.3"/></g>
</svg>
<svg width="24" height="24" viewBox="0 0 24 24" fill="none">
<g id="arrow-left" class="img"><path d="M14 7L9 12L14 17" stroke="white" stroke-width="1.5" stroke-linecap="round" stroke-linejoin="round"/></g>
<g id="arrow-right" class="img"><path d="M10 7L15 12L10 17" stroke="white" stroke-width="1.5" stroke-linecap="round" stroke-linejoin="round"/></g>
</svg>
<svg width="40" height="41" viewBox="0 0 40 41" fill="none">
<g id="icon-calendar" class="img"><path d="M2.5 36.125C2.5 36.6223 2.69754 37.0992 3.04917 37.4508C3.40081 37.8025 3.87772 38 4.375 38H35.625C36.1223 38 36.5992 37.8025 36.9508 37.4508C37.3025 37.0992 37.5 36.6223 37.5 36.125V14.25H2.5V36.125ZM27.5 17.0625C27.5 16.9796 27.5329 16.9001 27.5915 16.8415C27.6501 16.7829 27.7296 16.75 27.8125 16.75H30.9375C31.0204 16.75 31.0999 16.7829 31.1585 16.8415C31.2171 16.9001 31.25 16.9796 31.25 17.0625V20.1875C31.25 20.2704 31.2171 20.3499 31.1585 20.4085C31.0999 20.4671 31.0204 20.5 30.9375 20.5H27.8125C27.7296 20.5 27.6501 20.4671 27.5915 20.4085C27.5329 20.3499 27.5 20.2704 27.5 20.1875V17.0625ZM27.5 23.3125C27.5 23.2296 27.5329 23.1501 27.5915 23.0915C27.6501 23.0329 27.7296 23 27.8125 23H30.9375C31.0204 23 31.0999 23.0329 31.1585 23.0915C31.2171 23.1501 31.25 23.2296 31.25 23.3125V26.4375C31.25 26.5204 31.2171 26.5999 31.1585 26.6585C31.0999 26.7171 31.0204 26.75 30.9375 26.75H27.8125C27.7296 26.75 27.6501 26.7171 27.5915 26.6585C27.5329 26.5999 27.5 26.5204 27.5 26.4375V23.3125ZM21.25 17.0625C21.25 16.9796 21.2829 16.9001 21.3415 16.8415C21.4001 16.7829 21.4796 16.75 21.5625 16.75H24.6875C24.7704 16.75 24.8499 16.7829 24.9085 16.8415C24.9671 16.9001 25 16.9796 25 17.0625V20.1875C25 20.2704 24.9671 20.3499 24.9085 20.4085C24.8499 20.4671 24.7704 20.5 24.6875 20.5H21.5625C21.4796 20.5 21.4001 20.4671 21.3415 20.4085C21.2829 20.3499 21.25 20.2704 21.25 20.1875V17.0625ZM21.25 23.3125C21.25 23.2296 21.2829 23.1501 21.3415 23.0915C21.4001 23.0329 21.4796 23 21.5625 23H24.6875C24.7704 23 24.8499 23.0329 24.9085 23.0915C24.9671 23.1501 25 23.2296 25 23.3125V26.4375C25 26.5204 24.9671 26.5999 24.9085 26.6585C24.8499 26.7171 24.7704 26.75 24.6875 26.75H21.5625C21.4796 26.75 21.4001 26.7171 21.3415 26.6585C21.2829 26.5999 21.25 26.5204 21.25 26.4375V23.3125ZM21.25 29.5625C21.25 29.4796 21.2829 29.4001 21.3415 29.3415C21.4001 29.2829 21.4796 29.25 21.5625 29.25H24.6875C24.7704 29.25 24.8499 29.2829 24.9085 29.3415C24.9671 29.4001 25 29.4796 25 29.5625V32.6875C25 32.7704 24.9671 32.8499 24.9085 32.9085C24.8499 32.9671 24.7704 33 24.6875 33H21.5625C21.4796 33 21.4001 32.9671 21.3415 32.9085C21.2829 32.8499 21.25 32.7704 21.25 32.6875V29.5625ZM15 23.3125C15 23.2296 15.0329 23.1501 15.0915 23.0915C15.1501 23.0329 15.2296 23 15.3125 23H18.4375C18.5204 23 18.5999 23.0329 18.6585 23.0915C18.7171 23.1501 18.75 23.2296 18.75 23.3125V26.4375C18.75 26.5204 18.7171 26.5999 18.6585 26.6585C18.5999 26.7171 18.5204 26.75 18.4375 26.75H15.3125C15.2296 26.75 15.1501 26.7171 15.0915 26.6585C15.0329 26.5999 15 26.5204 15 26.4375V23.3125ZM15 29.5625C15 29.4796 15.0329 29.4001 15.0915 29.3415C15.1501 29.2829 15.2296 29.25 15.3125 29.25H18.4375C18.5204 29.25 18.5999 29.2829 18.6585 29.3415C18.7171 29.4001 18.75 29.4796 18.75 29.5625V32.6875C18.75 32.7704 18.7171 32.8499 18.6585 32.9085C18.5999 32.9671 18.5204 33 18.4375 33H15.3125C15.2296 33 15.1501 32.9671 15.0915 32.9085C15.0329 32.8499 15 32.7704 15 32.6875V29.5625ZM8.75 23.3125C8.75 23.2296 8.78292 23.1501 8.84153 23.0915C8.90013 23.0329 8.97962 23 9.0625 23H12.1875C12.2704 23 12.3499 23.0329 12.4085 23.0915C12.4671 23.1501 12.5 23.2296 12.5 23.3125V26.4375C12.5 26.5204 12.4671 26.5999 12.4085 26.6585C12.3499 26.7171 12.2704 26.75 12.1875 26.75H9.0625C8.97962 26.75 8.90013 26.7171 8.84153 26.6585C8.78292 26.5999 8.75 26.5204 8.75 26.4375V23.3125ZM8.75 29.5625C8.75 29.4796 8.78292 29.4001 8.84153 29.3415C8.90013 29.2829 8.97962 29.25 9.0625 29.25H12.1875C12.2704 29.25 12.3499 29.2829 12.4085 29.3415C12.4671 29.4001 12.5 29.4796 12.5 29.5625V32.6875C12.5 32.7704 12.4671 32.8499 12.4085 32.9085C12.3499 32.9671 12.2704 33 12.1875 33H9.0625C8.97962 33 8.90013 32.9671 8.84153 32.9085C8.78292 32.8499 8.75 32.7704 8.75 32.6875V29.5625ZM35.625 5.5H31.2562V3H27.5062V5.5H12.4937V3H8.74375V5.5H4.375C4.12971 5.49794 3.88643 5.54443 3.65919 5.63681C3.43195 5.72918 3.22523 5.8656 3.05094 6.03822C2.87666 6.21083 2.73825 6.41623 2.64369 6.64257C2.54914 6.86892 2.5003 7.11173 2.5 7.35703V11.75H37.5V7.35703C37.4997 7.11173 37.4509 6.86892 37.3563 6.64257C37.2618 6.41623 37.1233 6.21083 36.9491 6.03822C36.7748 5.8656 36.5681 5.72918 36.3408 5.63681C36.1136 5.54443 35.8703 5.49794 35.625 5.5Z" fill="#05B093"/></g>
</svg>
</svg>