<svg width="326" height="12" viewBox="0 0 326 12" fill="none" xmlns="http://www.w3.org/2000/svg">
<path d="M7.50252 2.33368C7.55376 2.45881 7.6582 2.81543 7.81584 3.40355C7.88678 3.67049 7.92422 3.95412 7.92816 4.25443H7.3902C7.01185 3.68717 6.62168 3.2805 6.21969 3.03441C5.8177 2.78415 5.36841 2.65902 4.87183 2.65902C4.26096 2.65902 3.76832 2.91137 3.39391 3.41606C2.88551 4.1001 2.63131 5.05318 2.63131 6.27529C2.63131 6.98436 2.67466 7.48905 2.76136 7.78936C2.90324 8.27737 3.08256 8.6757 3.29933 8.98436C3.46485 9.21794 3.68161 9.40355 3.94961 9.54119C4.29643 9.72888 4.66689 9.82273 5.061 9.82273C5.49453 9.82273 5.91228 9.68092 6.31428 9.39729C6.72021 9.10949 7.10841 8.68196 7.47888 8.1147C7.6247 8.08551 7.81584 8.06882 8.05231 8.06465C8.03654 8.22315 8.01093 8.3879 7.97546 8.55892C7.96363 8.62565 7.91831 8.89051 7.83949 9.35349L7.78628 9.54119L7.70352 9.83525C7.46311 10.0313 7.12418 10.1794 6.68671 10.2795C6.25319 10.3754 5.71917 10.4234 5.08465 10.4234C4.59989 10.4234 4.14075 10.3754 3.70723 10.2795C3.27765 10.1835 2.90915 10.0313 2.60175 9.82273C2.15246 9.52242 1.79973 9.19708 1.54356 8.84671C1.28739 8.49635 1.09624 8.1147 0.970127 7.70177C0.847952 7.28884 0.786865 6.82586 0.786865 6.31283C0.786865 5.06986 1.17309 4.0438 1.94555 3.23462C2.72195 2.42544 3.71117 2.02086 4.91321 2.02086C5.40191 2.02086 5.86105 2.04797 6.29063 2.10219C6.72415 2.15224 7.12812 2.22941 7.50252 2.33368Z" fill="white"/>
<path d="M8.28877 10.3045L8.3006 9.87904C8.37548 9.85401 8.50751 9.82273 8.69668 9.78519C9.00015 9.72263 9.18341 9.66632 9.24647 9.61627C9.31346 9.56621 9.39426 9.44526 9.48884 9.25339L10.683 5.94369L12.0841 2.05214C12.2141 2.05631 12.3383 2.05839 12.4565 2.05839H12.7225L12.7757 2.17101L13.8044 4.7487C14.0369 5.2951 14.2458 5.8269 14.431 6.34411C14.6162 6.85714 14.7758 7.27633 14.9098 7.60167C14.9887 7.79771 15.097 8.09176 15.235 8.48384C15.3059 8.69656 15.4143 8.9635 15.5601 9.28467C15.639 9.45985 15.6981 9.56204 15.7375 9.59124C15.8084 9.65381 15.9227 9.69552 16.0804 9.71637C16.2419 9.73723 16.4154 9.78519 16.6006 9.86027C16.6203 9.99791 16.6301 10.1001 16.6301 10.1668C16.6301 10.196 16.6282 10.2419 16.6242 10.3045C16.3326 10.3045 16.0114 10.2899 15.6606 10.2607C15.3099 10.2315 14.9946 10.2169 14.7148 10.2169C14.4034 10.2169 14.1788 10.2211 14.0408 10.2294L13.0358 10.2857L12.7462 10.2982C12.7462 10.1522 12.7521 10.0125 12.7639 9.87904L13.4201 9.72888C13.6172 9.67466 13.7315 9.63295 13.763 9.60375C13.8024 9.56204 13.8221 9.51408 13.8221 9.45985C13.8221 9.40563 13.8122 9.34932 13.7925 9.29093L13.5561 8.67779L13.0891 7.45151L10.8308 7.44526C10.748 7.64546 10.5766 8.13556 10.3165 8.91554C10.2416 9.1366 10.2042 9.28676 10.2042 9.36601C10.2042 9.47445 10.2317 9.55162 10.2869 9.5975C10.3776 9.67675 10.551 9.73306 10.8071 9.76642C10.8426 9.77477 10.9825 9.79771 11.2269 9.83525C11.2308 9.9854 11.2328 10.0897 11.2328 10.1481C11.2328 10.194 11.2288 10.2419 11.221 10.292C10.9766 10.292 10.3933 10.2565 9.47111 10.1856L9.22873 10.2294C8.93709 10.2795 8.65924 10.3045 8.39518 10.3045H8.28877ZM11.0673 6.78832C11.9895 6.80083 12.5334 6.80709 12.6989 6.80709L12.8467 6.80083C12.7284 6.42961 12.5747 5.99791 12.3856 5.50574C12.1964 5.00938 12.0427 4.63191 11.9245 4.37331L11.0673 6.78832Z" fill="white"/>
<path d="M19.5209 8.03962C21.6176 5.79979 22.9891 4.2878 23.6355 3.50365C23.6355 3.19499 23.6256 3.01773 23.6059 2.97185C23.5862 2.92179 23.5212 2.86966 23.4108 2.81543C23.3005 2.75704 23.0857 2.68822 22.7665 2.60897C22.6128 2.57143 22.5123 2.54223 22.465 2.52138C22.4728 2.36705 22.4886 2.24818 22.5123 2.16475L22.6778 2.1585C23.0088 2.1585 23.2295 2.16475 23.3399 2.17727C23.6512 2.21898 23.9626 2.23983 24.2739 2.23983C24.7784 2.23983 25.2395 2.21689 25.6573 2.17101C25.811 2.15433 25.9331 2.14599 26.0238 2.14599C26.1105 2.14599 26.2346 2.15224 26.3962 2.16475C26.3923 2.3316 26.3824 2.47967 26.3667 2.60897C25.9174 2.70907 25.6218 2.79041 25.4799 2.85297C25.342 2.91137 25.273 3.01773 25.273 3.17205V4.07925L25.2789 5.4682L25.2671 6.26277L25.2848 7.38895V8.27737L25.2966 9.01564C25.2966 9.16163 25.2927 9.32847 25.2848 9.51616C25.3676 9.54119 25.4444 9.56204 25.5154 9.57873C25.8858 9.66215 26.1657 9.74765 26.3548 9.83525L26.3726 10.2732L26.1184 10.2795C26.0514 10.2795 25.9745 10.2753 25.8878 10.2669L25.4444 10.2419C25.1213 10.2044 24.605 10.1856 23.8956 10.1856C23.533 10.1856 23.2552 10.1981 23.062 10.2231C22.8137 10.2523 22.664 10.2669 22.6128 10.2669C22.5694 10.2669 22.5083 10.2544 22.4295 10.2294C22.4334 10.0292 22.4433 9.89364 22.459 9.82273L22.861 9.72263L23.0916 9.67883C23.3399 9.63712 23.5015 9.60167 23.5764 9.57247C23.6276 9.26382 23.6532 8.52555 23.6532 7.35766L23.6473 5.51199L23.6591 4.34828L19.5209 8.85923C19.5249 9.32638 19.5308 9.57039 19.5387 9.59124C19.5623 9.62044 19.6313 9.64129 19.7456 9.65381L20.1299 9.71637C20.4688 9.78311 20.658 9.83107 20.6974 9.86027C20.7092 9.9562 20.7151 10.0209 20.7151 10.0542C20.7151 10.1084 20.7072 10.1835 20.6915 10.2795L20.3249 10.2857C20.1752 10.2857 19.9643 10.2732 19.6924 10.2482L19.249 10.2419L18.9475 10.2231L18.4096 10.2044C18.2361 10.2044 18.0253 10.2169 17.777 10.2419C17.5248 10.2669 17.1878 10.2795 16.7661 10.2795C16.7661 10.1502 16.7779 10.0021 16.8016 9.83525C16.837 9.8269 16.9198 9.81439 17.0499 9.79771L17.3041 9.74765C17.5524 9.70177 17.7396 9.65172 17.8657 9.5975C17.9051 8.80918 17.9248 8.12096 17.9248 7.53285V6.70073L17.9425 4.58603C17.9425 3.94786 17.9209 3.39937 17.8775 2.94056C17.8736 2.91554 17.8598 2.87174 17.8361 2.80918C17.8125 2.79666 17.777 2.78832 17.7297 2.78415C17.6942 2.77998 17.6568 2.77372 17.6174 2.76538C17.4361 2.73201 17.2725 2.71116 17.1267 2.70282L17.038 2.67779C16.9277 2.66528 16.8469 2.64859 16.7957 2.62774C16.7838 2.50678 16.7779 2.42961 16.7779 2.39625C16.7779 2.34619 16.7898 2.27737 16.8134 2.18978C16.9001 2.16893 16.9927 2.1585 17.0913 2.1585C17.379 2.1585 17.7139 2.17727 18.0962 2.21481C18.4431 2.24818 18.7308 2.26486 18.9593 2.26486C19.2786 2.26486 19.5722 2.25026 19.8402 2.22106C20.1712 2.18352 20.3663 2.16475 20.4254 2.16475C20.5003 2.16475 20.5949 2.17518 20.7092 2.19604L20.7151 2.38373C20.7151 2.45047 20.7072 2.5318 20.6915 2.62774L19.651 2.80292C19.5919 2.81126 19.5564 2.90928 19.5446 3.09698C19.5328 3.28467 19.5269 3.50782 19.5269 3.76642L19.5328 4.06048L19.5269 4.62357L19.5328 4.9489L19.515 5.37435C19.515 5.42857 19.519 5.52659 19.5269 5.6684C19.5347 5.8561 19.5387 6.04171 19.5387 6.22523C19.5387 6.37539 19.5347 6.52555 19.5269 6.6757L19.5091 7.00104L19.5209 8.03962ZM19.7101 0.625652C19.7101 0.450469 19.7673 0.302398 19.8816 0.181439C19.9998 0.0604797 20.1436 0 20.3131 0C20.455 0 20.5732 0.0396246 20.6678 0.118874C20.7624 0.198123 20.8865 0.385819 21.0402 0.68196C21.2491 1.08238 21.4797 1.28259 21.7319 1.28259C21.9841 1.28259 22.2127 1.08238 22.4177 0.68196C22.5517 0.423358 22.6679 0.24609 22.7665 0.150156C22.8689 0.0500521 22.999 0 23.1566 0C23.3222 0 23.4601 0.0625652 23.5704 0.187696C23.6808 0.308655 23.736 0.45464 23.736 0.625652C23.736 0.963504 23.5409 1.22211 23.1507 1.40146C22.7605 1.57664 22.2935 1.66423 21.7496 1.66423C21.1585 1.66423 20.6698 1.57456 20.2836 1.3952C19.9013 1.21585 19.7101 0.959333 19.7101 0.625652Z" fill="white"/>
<path d="M27.4958 1.85193H27.8623C27.8899 1.89781 27.9096 1.93118 27.9214 1.95203C28.0318 2.15224 28.1165 2.28363 28.1756 2.34619C28.2269 2.36288 28.4968 2.37122 28.9855 2.37122C29.289 2.37122 29.559 2.36913 29.7954 2.36496L29.9137 2.34619L30.629 2.33994L31.965 2.35245H33.7917L34.1405 2.29614C34.1917 2.2586 34.2469 2.1585 34.306 1.99583C34.3218 1.95829 34.3435 1.90615 34.3711 1.83942L34.6312 1.83316C34.6706 1.83316 34.7297 1.83525 34.8085 1.83942C34.8125 2.12722 34.8144 2.561 34.8144 3.14077L34.8204 3.6976L34.8144 4.01668C34.8144 4.12513 34.8066 4.21898 34.7908 4.29823C34.6292 4.35245 34.4873 4.38582 34.3652 4.39833C34.2627 4.23566 34.1504 4 34.0282 3.69135C33.91 3.38269 33.8351 3.21168 33.8035 3.17831C33.7563 3.12409 33.7011 3.08863 33.638 3.07195C33.5434 3.0511 33.1257 3.04067 32.3847 3.04067C32.2744 3.04067 32.1365 3.04901 31.9709 3.06569C31.9473 3.22836 31.9355 3.36184 31.9355 3.46611L31.9414 4.30448V6.1439L31.965 8.12722L31.9591 8.94056C31.9591 9.22836 31.9827 9.44526 32.03 9.59124C32.0931 9.62044 32.2094 9.64755 32.3788 9.67258C32.4104 9.67675 32.5562 9.71011 32.8163 9.77268C32.9345 9.80188 33.039 9.83525 33.1296 9.87278C33.1493 10.0229 33.1592 10.1147 33.1592 10.1481C33.1592 10.1856 33.1533 10.2398 33.1414 10.3107C33.0547 10.3149 32.9838 10.317 32.9286 10.317C32.5227 10.317 32.1778 10.3024 31.8941 10.2732C31.6103 10.2398 31.096 10.2231 30.3511 10.2231C30.2329 10.2231 29.8861 10.2482 29.3107 10.2982C29.086 10.3149 28.9402 10.3233 28.8732 10.3233C28.8693 10.2607 28.8653 10.2127 28.8614 10.1794L28.8555 10.0355V9.9854C28.9422 9.86444 29.1057 9.77477 29.3461 9.71637C29.756 9.6121 30.0398 9.51825 30.1974 9.43483C30.2368 9.35558 30.2605 9.2513 30.2684 9.122C30.296 8.62148 30.3097 7.82482 30.3097 6.73201L30.2802 4.36705C30.2802 3.71637 30.2684 3.32221 30.2447 3.18457C30.2368 3.14703 30.223 3.11992 30.2033 3.10323C30.1836 3.08238 30.156 3.06986 30.1206 3.06569C29.9984 3.04901 29.6003 3.04067 28.9264 3.04067C28.556 3.04067 28.3077 3.07821 28.1815 3.15328C28.0121 3.25756 27.7579 3.54119 27.4189 4.00417C27.3204 4.13764 27.2475 4.20438 27.2002 4.20438C27.0189 4.10428 26.9027 4.02294 26.8514 3.96038C26.9736 3.68926 27.1431 3.14703 27.3598 2.33368C27.4229 2.09593 27.4682 1.93535 27.4958 1.85193Z" fill="white"/>
<path d="M42.677 5.53702C43.0277 5.65381 43.3371 5.85819 43.6051 6.15016C43.8731 6.44213 44.1982 6.94473 44.5805 7.65798C45.0298 8.49635 45.3687 9.03441 45.5973 9.27216C45.8299 9.50574 46.1392 9.68092 46.5255 9.79771C46.6673 9.83942 46.758 9.87278 46.7974 9.89781C46.8053 9.97289 46.8092 10.0313 46.8092 10.073C46.8092 10.123 46.8013 10.2002 46.7856 10.3045L46.1353 10.292L45.2426 10.2669C45.018 10.2669 44.7224 10.2815 44.3559 10.3107C44.1076 9.74348 43.7312 9.01564 43.2267 8.12722C42.7223 7.23462 42.3518 6.7049 42.1154 6.53806C41.8789 6.36705 41.6365 6.28154 41.3882 6.28154C41.3725 6.43587 41.3646 6.5756 41.3646 6.70073L41.3941 7.56413C41.402 7.73931 41.406 7.90615 41.406 8.06465L41.3941 8.81543L41.406 9.03441L41.4178 9.46611C41.4966 9.56204 41.6937 9.65381 42.0089 9.7414C42.1863 9.79145 42.3361 9.85819 42.4582 9.94161C42.4701 10.025 42.476 10.0876 42.476 10.1293C42.476 10.1627 42.472 10.2148 42.4641 10.2857C42.2868 10.2941 42.1429 10.2982 42.0326 10.2982C41.7409 10.2982 41.4217 10.2857 41.0749 10.2607L40.6788 10.2357L40.1468 10.2544L39.1004 10.2482L38.5388 10.2669L38.5329 9.91658C38.5684 9.88738 38.7536 9.80605 39.0886 9.67258L39.2423 9.60375C39.4157 9.52033 39.532 9.47028 39.5911 9.4536C39.6699 9.40355 39.7211 9.33472 39.7448 9.24713C39.7684 9.15537 39.7802 8.83003 39.7802 8.27112L39.7625 7.67049L39.7684 6.34411L39.7625 5.40563L39.7743 5.13034L39.7625 4.32325L39.7802 4.00417C39.7802 3.52033 39.7507 3.19291 39.6916 3.0219C39.5694 2.91345 39.3329 2.81335 38.9822 2.72159C38.7733 2.66736 38.6314 2.61105 38.5565 2.55266L38.5979 2.16475C38.6728 2.15224 38.7516 2.14599 38.8344 2.14599C39.1221 2.14599 39.4078 2.16684 39.6916 2.20855C39.9793 2.24609 40.3478 2.26486 40.7971 2.26486L41.0513 2.25235L41.7607 2.22732C41.8671 2.22315 42.0129 2.21272 42.1981 2.19604L42.405 2.17727L42.5528 2.18352C42.5646 2.21689 42.5706 2.26277 42.5706 2.32117C42.5706 2.46298 42.5646 2.55474 42.5528 2.59645C42.3124 2.69239 42.0641 2.7633 41.8079 2.80918C41.6109 2.84672 41.4887 2.88217 41.4414 2.91554C41.3941 2.94891 41.3705 3.02398 41.3705 3.14077C41.3705 3.55787 41.3744 3.83316 41.3823 3.96663L41.3941 4.49844L41.3823 4.89885V5.37435L41.3764 5.91241C41.6089 5.83316 41.8355 5.71011 42.0562 5.54327C42.2769 5.37643 42.5548 4.99687 42.8898 4.40459C43.4652 3.38269 43.948 2.7341 44.3381 2.45881C44.7323 2.17935 45.1264 2.03962 45.5205 2.03962C45.9146 2.03962 46.2141 2.14599 46.419 2.35871C46.6279 2.56726 46.7324 2.81752 46.7324 3.10949C46.7324 3.32638 46.6673 3.51825 46.5373 3.68509C46.4112 3.85193 46.2358 3.93535 46.0111 3.93535C45.8377 3.93535 45.6998 3.89781 45.5973 3.82273C45.4988 3.74348 45.3766 3.59333 45.2308 3.37226C45.0889 3.14703 44.947 3.03441 44.8052 3.03441C44.4741 3.03441 44.0465 3.50991 43.5223 4.4609C43.2149 5.01147 42.9331 5.37018 42.677 5.53702Z" fill="white"/>
<path d="M47.3058 6.15016C47.3058 5.63295 47.4004 5.11366 47.5896 4.59228C47.7275 4.21689 47.9206 3.87278 48.1689 3.55996C48.4172 3.24713 48.7285 2.96976 49.1029 2.72784C49.4774 2.48175 49.8596 2.30657 50.2498 2.20229C50.64 2.09385 51.0755 2.03962 51.5563 2.03962C52.376 2.03962 53.0874 2.20229 53.6904 2.52763C54.2934 2.85297 54.7683 3.29301 55.1151 3.84776C55.5644 4.56934 55.789 5.32638 55.789 6.11887C55.789 7.29927 55.4087 8.31074 54.6481 9.15329C53.8914 9.99583 52.8372 10.4171 51.4854 10.4171C51.1504 10.4171 50.837 10.3942 50.5454 10.3483C50.3247 10.3149 50.1316 10.269 49.9661 10.2106C49.6665 10.1064 49.499 10.0459 49.4636 10.0292C49.034 9.77059 48.6891 9.50574 48.429 9.23462C48.1689 8.9635 47.9482 8.65693 47.7669 8.31491C47.6684 8.12304 47.5561 7.77685 47.4299 7.27633C47.3472 6.95516 47.3058 6.57977 47.3058 6.15016ZM51.3316 2.65902C50.9888 2.65902 50.6853 2.74453 50.4212 2.91554C50.1572 3.08238 49.9582 3.26799 49.8242 3.47237C49.5995 3.81856 49.4399 4.19812 49.3453 4.61105C49.2507 5.01981 49.2034 5.51825 49.2034 6.10636C49.2034 6.46507 49.2172 6.72159 49.2448 6.87591C49.2527 6.92596 49.2645 7.01147 49.2803 7.13243C49.3158 7.44108 49.3572 7.66632 49.4044 7.80813C49.5739 8.33785 49.6941 8.66528 49.7651 8.79041C49.8833 9.00313 50.0587 9.21376 50.2912 9.42231C50.4094 9.53076 50.5809 9.63087 50.8055 9.72263C51.0302 9.81022 51.2548 9.85401 51.4794 9.85401C51.9051 9.85401 52.2992 9.74974 52.6618 9.54119C53.0283 9.32847 53.3219 8.96976 53.5426 8.46507C53.7633 7.96038 53.8737 7.30344 53.8737 6.49427C53.8737 6.16058 53.852 5.70803 53.8086 5.1366L53.7791 5.01773C53.7673 4.98436 53.7476 4.89885 53.72 4.76121C53.5741 4.07716 53.2943 3.55579 52.8805 3.19708C52.4706 2.83837 51.9543 2.65902 51.3316 2.65902Z" fill="white"/>
<path d="M56.7408 10.2795C56.7408 10.1543 56.7526 10.0063 56.7763 9.83525L57.5153 9.6976C57.6059 9.67675 57.7143 9.64338 57.8404 9.5975L57.9172 8.03337C57.9015 7.47028 57.8936 7.04901 57.8936 6.76955L57.8995 6.6194C57.9113 6.44838 57.9172 6.01877 57.9172 5.33055L57.9054 5.14911L57.9172 4.62357L57.9113 4.07925V3.81022C57.9113 3.5683 57.8936 3.28467 57.8581 2.95933C57.8542 2.93014 57.8384 2.88008 57.8108 2.80918C57.7793 2.79666 57.7438 2.78832 57.7044 2.78415C57.669 2.77998 57.6315 2.77372 57.5921 2.76538C57.4384 2.73618 57.2748 2.71533 57.1014 2.70282L57.0128 2.67779C56.9064 2.66528 56.8256 2.64859 56.7704 2.62774C56.7586 2.50678 56.7526 2.42961 56.7526 2.39625C56.7526 2.34619 56.7645 2.27737 56.7881 2.18978C56.8669 2.1731 56.9773 2.16475 57.1192 2.16475C57.2611 2.16475 57.3596 2.16267 57.4148 2.1585C57.8956 2.21272 58.2522 2.24192 58.4848 2.24609C58.5912 2.24609 58.6976 2.25026 58.804 2.2586C58.9143 2.26277 59.0109 2.26486 59.0937 2.26486C59.2237 2.26486 59.541 2.244 60.0454 2.20229C60.1282 2.18144 60.2189 2.17101 60.3174 2.17101C60.4632 2.17101 60.5854 2.17935 60.6839 2.19604C60.6879 2.28363 60.6898 2.34619 60.6898 2.38373C60.6898 2.45047 60.6819 2.5318 60.6662 2.62774L59.6257 2.80292C59.539 2.84463 59.4957 2.90511 59.4957 2.98436L59.5134 3.21585L59.5193 3.31595L59.5134 3.59124L59.5016 3.80396V3.85401C59.5055 3.8999 59.5075 3.93952 59.5075 3.97289L59.5016 4.76747C59.5055 4.84254 59.5075 4.89885 59.5075 4.93639C59.5075 4.95725 59.5035 5.02398 59.4957 5.1366C59.4917 5.20334 59.4898 5.27216 59.4898 5.34307C59.4898 5.40563 59.4957 5.5537 59.5075 5.78728C59.6178 5.80813 59.7105 5.82065 59.7853 5.82482L60.6603 5.84359H61.0859L62.15 5.84984L63.1845 5.81856C63.3185 5.81856 63.4604 5.80396 63.6102 5.77477C63.6181 5.63295 63.624 5.28467 63.6279 4.72993L63.6397 4.44838L63.6043 3.38478L63.5629 2.94682C63.5511 2.91762 63.5235 2.89051 63.4801 2.86548C63.3422 2.78206 63.0663 2.68822 62.6525 2.58394C62.5776 2.56726 62.5067 2.5464 62.4397 2.52138C62.4476 2.37539 62.4633 2.25652 62.487 2.16475C62.5737 2.16058 62.6269 2.1585 62.6466 2.1585L63.22 2.16475C63.5865 2.21481 63.959 2.23983 64.3373 2.23983C64.424 2.23983 64.493 2.23775 64.5442 2.23358L65.3127 2.20855C65.3837 2.20438 65.4527 2.20021 65.5197 2.19604C65.6615 2.16267 65.8074 2.14599 65.9571 2.14599C66.0714 2.14599 66.2094 2.15224 66.3709 2.16475C66.367 2.32742 66.3571 2.4755 66.3414 2.60897C65.9788 2.68822 65.7404 2.74661 65.6261 2.78415C65.5157 2.81752 65.4034 2.86548 65.2891 2.92805L65.2536 3.05318V3.15954L65.2595 3.32221L65.2536 3.40355C65.2458 3.49114 65.2418 3.55787 65.2418 3.60375V3.76017C65.2458 3.94786 65.2477 4.05214 65.2477 4.07299V4.86757L65.2536 5.4682L65.2418 6.26277C65.2379 6.4463 65.2438 6.82169 65.2595 7.38895V8.27737L65.2714 9.01564C65.2714 9.15329 65.2674 9.32013 65.2595 9.51616C65.3423 9.54119 65.4192 9.56204 65.4901 9.57873C65.8606 9.66215 66.1404 9.74765 66.3296 9.83525L66.3473 10.2732C66.1896 10.2774 66.097 10.2795 66.0694 10.2795C65.8803 10.2795 65.6635 10.2669 65.4192 10.2419C65.096 10.2044 64.5758 10.1856 63.8585 10.1856C63.5353 10.1856 63.1175 10.2127 62.6052 10.2669C62.55 10.2669 62.483 10.2544 62.4042 10.2294C62.4081 10.0375 62.418 9.90198 62.4338 9.82273L62.889 9.71011L63.3678 9.62878C63.4151 9.61627 63.4762 9.5975 63.5511 9.57247C63.5944 9.23462 63.6181 8.67362 63.622 7.88947L63.6279 7.35766C63.6043 7.1366 63.5925 6.87174 63.5925 6.56309C63.4466 6.55057 63.289 6.54223 63.1195 6.53806L60.3765 6.50678L60.3233 6.50052L60.2819 6.49427C60.2543 6.49427 60.2228 6.49635 60.1873 6.50052C60.0849 6.50469 59.9982 6.50678 59.9272 6.50678H59.7617C59.6868 6.50678 59.6021 6.52138 59.5075 6.55057L59.4838 7.01981V7.10115C59.4917 7.21376 59.4957 7.28676 59.4957 7.32013V9.25965C59.4957 9.36809 59.5016 9.47862 59.5134 9.59124L59.5725 9.62878L60.4415 9.77268C60.4849 9.78936 60.5184 9.79979 60.542 9.80396C60.5933 9.81648 60.6366 9.83525 60.6721 9.86027C60.6839 9.9562 60.6898 10.0209 60.6898 10.0542C60.6898 10.1084 60.6819 10.1835 60.6662 10.2795C60.5243 10.2836 60.4041 10.2857 60.3056 10.2857C60.2189 10.2857 60.1381 10.2836 60.0632 10.2795C60.0277 10.2795 59.9942 10.2774 59.9627 10.2732L59.1291 10.2357C58.9321 10.2148 58.6562 10.2044 58.3015 10.2044L58.1774 10.2106C58.0118 10.219 57.9153 10.2252 57.8877 10.2294C57.6433 10.2628 57.2611 10.2795 56.7408 10.2795Z" fill="white"/>
<path d="M68.3277 2.91554C68.2449 2.88634 68.1681 2.86548 68.0971 2.85297C67.7267 2.76955 67.4469 2.68405 67.2577 2.59645L67.24 2.15224H67.5237L67.7306 2.1585L68.1681 2.18978C68.4913 2.22732 69.0075 2.24609 69.7169 2.24609C69.9495 2.24609 70.1643 2.23775 70.3613 2.22106L70.982 2.16475C71.0412 2.16475 71.1082 2.17518 71.183 2.19604C71.183 2.39625 71.1752 2.53389 71.1594 2.60897L70.7515 2.70907L70.5209 2.74661C70.2726 2.78832 70.1111 2.82377 70.0362 2.85297C69.9849 3.06152 69.9593 4.35871 69.9593 6.74453L69.9948 9.4536C70.1209 9.47028 70.2785 9.47862 70.4677 9.47862L73.2107 9.51616L73.3999 9.52242C73.798 9.52242 74.0266 9.50574 74.0857 9.47237L74.1093 8.32742L74.0975 5.11157L74.0916 3.30344C74.0916 3.06986 74.0857 2.91345 74.0738 2.8342C74.0502 2.80918 73.9812 2.79041 73.8669 2.77789L73.6009 2.7341C73.4827 2.71741 73.3723 2.69656 73.2699 2.67153L73.0511 2.62774C72.9959 2.61522 72.9526 2.59645 72.9211 2.57143C72.9053 2.4755 72.8974 2.41084 72.8974 2.37748C72.8974 2.31908 72.9053 2.244 72.9211 2.15224L73.2876 2.14599C73.4374 2.14599 73.6502 2.15641 73.926 2.17727L75.2916 2.22732C75.4454 2.22732 75.6266 2.21064 75.8355 2.17727L76.2139 2.15224L76.8464 2.14599C76.8464 2.27946 76.8346 2.42961 76.8109 2.59645L76.3144 2.68405C76.0661 2.72993 75.8789 2.77789 75.7528 2.82795L75.67 4.39208L75.6996 5.66215L75.6877 6.05631L75.67 7.80813L75.6818 8.34619V8.61522C75.6818 9.07821 75.7232 9.3806 75.806 9.52242C75.8887 9.66423 76.0543 9.77268 76.3025 9.84776C76.4562 9.89781 76.5528 9.96663 76.5922 10.0542C76.6316 10.1376 76.6553 10.3983 76.6632 10.8363L76.7045 11.4682C76.7164 11.6267 76.7242 11.7914 76.7282 11.9625C76.6454 11.9833 76.5331 11.9958 76.3912 12C76.3203 11.8665 76.2493 11.7164 76.1784 11.5495C75.9971 11.1116 75.8375 10.8217 75.6996 10.6799C75.5656 10.5422 75.402 10.4463 75.2089 10.3921C75.0158 10.342 74.3911 10.2941 73.3349 10.2482C72.2787 10.2023 71.2185 10.1794 70.1544 10.1794C69.1061 10.1794 68.3671 10.2044 67.9375 10.2544C67.7681 10.2753 67.6498 10.2857 67.5828 10.2857C67.5079 10.2857 67.3858 10.2774 67.2163 10.2607C67.2202 10.098 67.2301 9.94995 67.2459 9.81648C67.7779 9.70803 68.1287 9.60375 68.2981 9.50365C68.3336 9.42023 68.3513 9.18457 68.3513 8.79666C68.3513 8.76747 68.3494 8.72576 68.3454 8.67153L68.3395 8.35871L68.3336 6.9635L68.3395 5.8561L68.3277 5.0365L68.3336 4.14807L68.3159 3.41606C68.3159 3.27007 68.3198 3.10323 68.3277 2.91554Z" fill="white"/>
<path d="M77.5558 2.20229C77.7805 2.21481 77.9755 2.23358 78.1411 2.2586C78.4524 2.30448 78.813 2.32742 79.2229 2.32742C79.3648 2.32742 79.7293 2.31491 80.3166 2.28989C81.1954 2.25235 81.9896 2.23358 82.699 2.23358L83.769 2.22106C84.0094 2.22106 84.3641 2.25235 84.8331 2.31491C84.904 2.39833 84.9395 2.51095 84.9395 2.65276V3.94161L84.9513 4.19812C84.9513 4.22315 84.9493 4.26069 84.9454 4.31074L84.703 4.32325C84.6715 4.32325 84.6045 4.31908 84.502 4.31074C84.4666 4.22732 84.4193 4.10428 84.3602 3.94161L84.1237 3.49739C84.033 3.3097 83.9069 3.11783 83.7453 2.92179C83.6468 2.8926 83.5207 2.87591 83.367 2.87174C83.3276 2.86757 83.2074 2.85714 83.0064 2.84046C82.6399 2.80709 82.2457 2.79041 81.824 2.79041C81.3432 2.79041 80.9136 2.79875 80.5353 2.81543C80.5235 2.91971 80.5176 3.33055 80.5176 4.04797L80.5294 5.09906V5.88738C80.6279 5.8999 80.7126 5.90615 80.7836 5.90615C81.4891 5.90615 81.9915 5.89155 82.2911 5.86236C82.5906 5.83316 82.7758 5.79353 82.8468 5.74348C82.9177 5.68926 82.9808 5.5975 83.0359 5.4682C83.0714 5.37643 83.1404 5.06986 83.2428 4.54849L83.3197 4.54223L83.6626 4.54849C83.6783 4.91971 83.6862 5.20125 83.6862 5.39312C83.6862 5.83107 83.6823 6.11262 83.6744 6.23775C83.6705 6.36288 83.6685 6.4609 83.6685 6.5318C83.6685 6.64442 83.6744 6.82586 83.6862 7.07612C83.698 7.32221 83.704 7.50574 83.704 7.62669V7.76434H83.2842C83.2685 7.6976 83.2389 7.55996 83.1955 7.35141C83.1167 6.9635 83.0458 6.72159 82.9827 6.62565C82.9354 6.55057 82.8566 6.49427 82.7463 6.45673C82.6674 6.42753 82.3758 6.41293 81.8713 6.41293C81.2762 6.41293 80.8289 6.42961 80.5294 6.46298C80.5254 6.57143 80.5235 6.64234 80.5235 6.6757C80.5235 7.17205 80.5314 7.58498 80.5471 7.91449L80.5353 9.2659C80.5353 9.4244 80.5885 9.53285 80.6949 9.59124C80.8565 9.67883 81.3511 9.72263 82.1787 9.72263C82.7266 9.72263 83.1916 9.67883 83.5739 9.59124C83.838 9.52868 84.0705 9.38895 84.2715 9.17205C84.5395 8.8926 84.7621 8.50052 84.9395 7.99583C85.0617 7.98332 85.1622 7.97706 85.241 7.97706C85.2843 7.97706 85.3494 7.97915 85.4361 7.98332C85.4242 8.08759 85.4144 8.17518 85.4065 8.24609L85.371 8.43379L85.1523 9.61627L85.0459 10.3295C84.7897 10.342 84.5868 10.3483 84.437 10.3483C84.2163 10.3483 83.6271 10.3274 82.6694 10.2857C81.9955 10.2565 81.1836 10.2419 80.2338 10.2419C79.7609 10.2419 79.1796 10.2628 78.4899 10.3045H78.2416L77.5263 10.3295V9.89781C77.6011 9.87696 77.7509 9.85401 77.9755 9.82899C78.3854 9.77894 78.6692 9.7122 78.8268 9.62878C78.8702 9.50782 78.8919 9.35558 78.8919 9.17205C78.8919 9.10115 78.8899 8.98019 78.8859 8.80918L78.8919 8.61522L78.8741 6.25652L78.88 5.54953L78.8505 4.54849L78.8564 3.8415L78.8032 3.06569C78.8032 3.04484 78.7992 3.00313 78.7914 2.94056C78.7519 2.89468 78.6928 2.86548 78.614 2.85297C78.5707 2.84463 78.5115 2.83212 78.4367 2.81543C78.212 2.76538 77.9953 2.73618 77.7864 2.72784C77.7115 2.72367 77.6248 2.71533 77.5263 2.70282L77.5558 2.20229Z" fill="white"/>
<path d="M86.1869 2.62148L86.1809 2.14599L87.5938 2.23983L88.2264 2.23358H88.4569C88.6973 2.23358 89.0737 2.21898 89.5861 2.18978C89.8777 2.16893 90.061 2.1585 90.1358 2.1585C90.6324 2.1585 91.0068 2.1877 91.2591 2.24609C91.6453 2.32951 91.9507 2.46298 92.1754 2.64651C92.404 2.83003 92.599 3.09281 92.7606 3.43483C92.9262 3.77268 93.0089 4.08759 93.0089 4.37956C93.0089 5.10532 92.7922 5.69552 92.3586 6.15016C91.9291 6.60063 91.3852 6.82586 90.727 6.82586C90.4984 6.82586 90.2797 6.79666 90.0708 6.73827C89.8659 6.67987 89.6728 6.59228 89.4915 6.4755C89.4718 6.35454 89.4619 6.1877 89.4619 5.97497C89.5565 5.98332 89.6412 5.98957 89.7161 5.99374C89.7949 5.99791 89.8639 6 89.923 6C90.258 6 90.5398 5.90198 90.7684 5.70594C91.0719 5.45151 91.2236 5.03858 91.2236 4.46715C91.2236 4.05839 91.1566 3.72471 91.0226 3.46611C90.8925 3.20334 90.7369 3.02607 90.5556 2.93431C90.3034 2.80918 90.0196 2.74661 89.7043 2.74661C89.4087 2.74661 89.1979 2.79249 89.0718 2.88425C89.0402 2.93848 89.0166 2.99062 89.0008 3.04067L89.0422 5.98749L89.0304 6.23775L89.0481 6.50052C89.052 6.55892 89.054 6.64442 89.054 6.75704V7.27007L89.0599 8.08968L89.0481 9.06569C89.0481 9.20334 89.0599 9.38895 89.0836 9.62252L90.26 9.77894C90.2758 9.87904 90.2836 9.95829 90.2836 10.0167C90.2836 10.0792 90.2738 10.1668 90.2541 10.2795C90.1556 10.2961 90.0807 10.3045 90.0294 10.3045C89.9073 10.3045 89.6767 10.2899 89.3378 10.2607C88.9988 10.2273 88.6126 10.2106 88.1791 10.2106C87.6904 10.2106 87.2253 10.244 86.7839 10.3107C86.7091 10.3233 86.5908 10.3337 86.4292 10.342C86.4135 10.2211 86.4056 10.1314 86.4056 10.073C86.4056 10.0355 86.4095 9.97706 86.4174 9.89781L86.778 9.77268C87.0263 9.69343 87.2411 9.5975 87.4224 9.48488C87.4579 9.36392 87.4756 9.25339 87.4756 9.15329C87.4756 9.11157 87.4736 9.06361 87.4697 9.00939C87.4657 8.88008 87.4638 8.69864 87.4638 8.46507L87.446 6.70699L87.381 4.72367C87.3534 3.78102 87.3317 3.27216 87.316 3.19708C87.2884 3.07612 87.2411 2.98227 87.1741 2.91554C87.1071 2.84463 86.9948 2.79458 86.8371 2.76538C86.51 2.70699 86.2933 2.65902 86.1869 2.62148Z" fill="white"/>
<path d="M93.9784 1.85193H94.345C94.3726 1.89781 94.3923 1.93118 94.4041 1.95203C94.5144 2.15224 94.5992 2.28363 94.6583 2.34619C94.7095 2.36288 94.9795 2.37122 95.4682 2.37122C95.7716 2.37122 96.0416 2.36913 96.2781 2.36496L96.3963 2.34619L97.1116 2.33994L98.4477 2.35245H100.274L100.623 2.29614C100.674 2.2586 100.73 2.1585 100.789 1.99583C100.804 1.95829 100.826 1.90615 100.854 1.83942L101.114 1.83316C101.153 1.83316 101.212 1.83525 101.291 1.83942C101.295 2.12722 101.297 2.561 101.297 3.14077L101.303 3.6976L101.297 4.01668C101.297 4.12513 101.289 4.21898 101.273 4.29823C101.112 4.35245 100.97 4.38582 100.848 4.39833C100.745 4.23566 100.633 4 100.511 3.69135C100.393 3.38269 100.318 3.21168 100.286 3.17831C100.239 3.12409 100.184 3.08863 100.121 3.07195C100.026 3.0511 99.6083 3.04067 98.8674 3.04067C98.757 3.04067 98.6191 3.04901 98.4536 3.06569C98.4299 3.22836 98.4181 3.36184 98.4181 3.46611L98.424 4.30448V6.1439L98.4477 8.12722L98.4417 8.94056C98.4417 9.22836 98.4654 9.44526 98.5127 9.59124C98.5757 9.62044 98.692 9.64755 98.8615 9.67258C98.893 9.67675 99.0388 9.71011 99.2989 9.77268C99.4172 9.80188 99.5216 9.83525 99.6123 9.87278C99.632 10.0229 99.6418 10.1147 99.6418 10.1481C99.6418 10.1856 99.6359 10.2398 99.6241 10.3107C99.5374 10.3149 99.4664 10.317 99.4113 10.317C99.0053 10.317 98.6605 10.3024 98.3767 10.2732C98.093 10.2398 97.5786 10.2231 96.8338 10.2231C96.7155 10.2231 96.3687 10.2482 95.7933 10.2982C95.5687 10.3149 95.4229 10.3233 95.3559 10.3233C95.3519 10.2607 95.348 10.2127 95.344 10.1794L95.3381 10.0355V9.9854C95.4248 9.86444 95.5884 9.77477 95.8288 9.71637C96.2387 9.6121 96.5224 9.51825 96.6801 9.43483C96.7195 9.35558 96.7431 9.2513 96.751 9.122C96.7786 8.62148 96.7924 7.82482 96.7924 6.73201L96.7628 4.36705C96.7628 3.71637 96.751 3.32221 96.7274 3.18457C96.7195 3.14703 96.7057 3.11992 96.686 3.10323C96.6663 3.08238 96.6387 3.06986 96.6032 3.06569C96.481 3.04901 96.083 3.04067 95.4091 3.04067C95.0386 3.04067 94.7903 3.07821 94.6642 3.15328C94.4947 3.25756 94.2405 3.54119 93.9016 4.00417C93.8031 4.13764 93.7301 4.20438 93.6829 4.20438C93.5016 4.10428 93.3853 4.02294 93.3341 3.96038C93.4562 3.68926 93.6257 3.14703 93.8425 2.33368C93.9055 2.09593 93.9509 1.93535 93.9784 1.85193Z" fill="white"/>
<path d="M102.048 10.2795C102.048 10.1543 102.06 10.0063 102.083 9.83525L102.822 9.6976C102.913 9.67675 103.021 9.64338 103.147 9.5975L103.224 8.03337C103.209 7.47028 103.201 7.04901 103.201 6.76955L103.207 6.6194C103.218 6.44838 103.224 6.01877 103.224 5.33055L103.212 5.14911L103.224 4.62357L103.218 4.07925V3.81022C103.218 3.5683 103.201 3.28467 103.165 2.95933C103.161 2.93014 103.145 2.88008 103.118 2.80918C103.086 2.79666 103.051 2.78832 103.011 2.78415C102.976 2.77998 102.939 2.77372 102.899 2.76538C102.745 2.73618 102.582 2.71533 102.408 2.70282L102.32 2.67779C102.213 2.66528 102.133 2.64859 102.077 2.62774C102.066 2.50678 102.06 2.42961 102.06 2.39625C102.06 2.34619 102.072 2.27737 102.095 2.18978C102.174 2.1731 102.284 2.16475 102.426 2.16475C102.568 2.16475 102.667 2.16267 102.722 2.1585C103.203 2.21272 103.559 2.24192 103.792 2.24609C103.898 2.24609 104.005 2.25026 104.111 2.2586C104.221 2.26277 104.318 2.26486 104.401 2.26486C104.531 2.26486 104.848 2.244 105.352 2.20229C105.435 2.18144 105.526 2.17101 105.624 2.17101C105.77 2.17101 105.892 2.17935 105.991 2.19604C105.995 2.28363 105.997 2.34619 105.997 2.38373C105.997 2.45047 105.989 2.5318 105.973 2.62774L104.933 2.80292C104.846 2.84463 104.803 2.90511 104.803 2.98436L104.82 3.21585L104.826 3.31595L104.82 3.59124L104.809 3.80396V3.85401C104.813 3.8999 104.815 3.93952 104.815 3.97289L104.809 4.76747C104.813 4.84254 104.815 4.89885 104.815 4.93639C104.815 4.95725 104.811 5.02398 104.803 5.1366C104.799 5.20334 104.797 5.27216 104.797 5.34307C104.797 5.40563 104.803 5.5537 104.815 5.78728C104.925 5.80813 105.017 5.82065 105.092 5.82482L105.967 5.84359H106.393L107.457 5.84984L108.492 5.81856C108.626 5.81856 108.767 5.80396 108.917 5.77477C108.925 5.63295 108.931 5.28467 108.935 4.72993L108.947 4.44838L108.911 3.38478L108.87 2.94682C108.858 2.91762 108.831 2.89051 108.787 2.86548C108.649 2.78206 108.373 2.68822 107.96 2.58394C107.885 2.56726 107.814 2.5464 107.747 2.52138C107.755 2.37539 107.77 2.25652 107.794 2.16475C107.881 2.16058 107.934 2.1585 107.954 2.1585L108.527 2.16475C108.894 2.21481 109.266 2.23983 109.644 2.23983C109.731 2.23983 109.8 2.23775 109.851 2.23358L110.62 2.20855C110.691 2.20438 110.76 2.20021 110.827 2.19604C110.969 2.16267 111.114 2.14599 111.264 2.14599C111.378 2.14599 111.516 2.15224 111.678 2.16475C111.674 2.32742 111.664 2.4755 111.648 2.60897C111.286 2.68822 111.047 2.74661 110.933 2.78415C110.823 2.81752 110.71 2.86548 110.596 2.92805L110.561 3.05318V3.15954L110.567 3.32221L110.561 3.40355C110.553 3.49114 110.549 3.55787 110.549 3.60375V3.76017C110.553 3.94786 110.555 4.05214 110.555 4.07299V4.86757L110.561 5.4682L110.549 6.26277C110.545 6.4463 110.551 6.82169 110.567 7.38895V8.27737L110.578 9.01564C110.578 9.15329 110.574 9.32013 110.567 9.51616C110.649 9.54119 110.726 9.56204 110.797 9.57873C111.168 9.66215 111.447 9.74765 111.637 9.83525L111.654 10.2732C111.497 10.2774 111.404 10.2795 111.376 10.2795C111.187 10.2795 110.971 10.2669 110.726 10.2419C110.403 10.2044 109.883 10.1856 109.166 10.1856C108.842 10.1856 108.425 10.2127 107.912 10.2669C107.857 10.2669 107.79 10.2544 107.711 10.2294C107.715 10.0375 107.725 9.90198 107.741 9.82273L108.196 9.71011L108.675 9.62878C108.722 9.61627 108.783 9.5975 108.858 9.57247C108.901 9.23462 108.925 8.67362 108.929 7.88947L108.935 7.35766C108.911 7.1366 108.899 6.87174 108.899 6.56309C108.754 6.55057 108.596 6.54223 108.427 6.53806L105.684 6.50678L105.63 6.50052L105.589 6.49427C105.561 6.49427 105.53 6.49635 105.494 6.50052C105.392 6.50469 105.305 6.50678 105.234 6.50678H105.069C104.994 6.50678 104.909 6.52138 104.815 6.55057L104.791 7.01981V7.10115C104.799 7.21376 104.803 7.28676 104.803 7.32013V9.25965C104.803 9.36809 104.809 9.47862 104.82 9.59124L104.88 9.62878L105.749 9.77268C105.792 9.78936 105.825 9.79979 105.849 9.80396C105.9 9.81648 105.944 9.83525 105.979 9.86027C105.991 9.9562 105.997 10.0209 105.997 10.0542C105.997 10.1084 105.989 10.1835 105.973 10.2795C105.831 10.2836 105.711 10.2857 105.613 10.2857C105.526 10.2857 105.445 10.2836 105.37 10.2795C105.335 10.2795 105.301 10.2774 105.27 10.2732L104.436 10.2357C104.239 10.2148 103.963 10.2044 103.609 10.2044L103.484 10.2106C103.319 10.219 103.222 10.2252 103.195 10.2294C102.95 10.2628 102.568 10.2795 102.048 10.2795Z" fill="white"/>
<path d="M112.677 6.15016C112.677 5.63295 112.772 5.11366 112.961 4.59228C113.099 4.21689 113.292 3.87278 113.54 3.55996C113.788 3.24713 114.1 2.96976 114.474 2.72784C114.849 2.48175 115.231 2.30657 115.621 2.20229C116.011 2.09385 116.447 2.03962 116.928 2.03962C117.747 2.03962 118.459 2.20229 119.062 2.52763C119.665 2.85297 120.14 3.29301 120.486 3.84776C120.936 4.56934 121.16 5.32638 121.16 6.11887C121.16 7.29927 120.78 8.31074 120.019 9.15329C119.263 9.99583 118.208 10.4171 116.857 10.4171C116.522 10.4171 116.208 10.3942 115.917 10.3483C115.696 10.3149 115.503 10.269 115.337 10.2106C115.038 10.1064 114.87 10.0459 114.835 10.0292C114.405 9.77059 114.06 9.50574 113.8 9.23462C113.54 8.9635 113.319 8.65693 113.138 8.31491C113.04 8.12304 112.927 7.77685 112.801 7.27633C112.718 6.95516 112.677 6.57977 112.677 6.15016ZM116.703 2.65902C116.36 2.65902 116.057 2.74453 115.793 2.91554C115.528 3.08238 115.329 3.26799 115.195 3.47237C114.971 3.81856 114.811 4.19812 114.717 4.61105C114.622 5.01981 114.575 5.51825 114.575 6.10636C114.575 6.46507 114.588 6.72159 114.616 6.87591C114.624 6.92596 114.636 7.01147 114.652 7.13243C114.687 7.44108 114.728 7.66632 114.776 7.80813C114.945 8.33785 115.065 8.66528 115.136 8.79041C115.255 9.00313 115.43 9.21376 115.662 9.42231C115.781 9.53076 115.952 9.63087 116.177 9.72263C116.401 9.81022 116.626 9.85401 116.851 9.85401C117.276 9.85401 117.67 9.74974 118.033 9.54119C118.4 9.32847 118.693 8.96976 118.914 8.46507C119.135 7.96038 119.245 7.30344 119.245 6.49427C119.245 6.16058 119.223 5.70803 119.18 5.1366L119.15 5.01773C119.139 4.98436 119.119 4.89885 119.091 4.76121C118.945 4.07716 118.666 3.55579 118.252 3.19708C117.842 2.83837 117.326 2.65902 116.703 2.65902Z" fill="white"/>
<path d="M125.21 7.12617H127.072L128.018 7.11366C128.148 7.11366 128.268 7.122 128.378 7.13869C128.39 7.33472 128.402 7.48071 128.414 7.57664L128.42 7.683L128.396 8.00834C128.392 8.05839 128.39 8.12096 128.39 8.19604V8.30865L125.186 8.31491C125.182 8.19395 125.18 8.10219 125.18 8.03962C125.18 7.93535 125.184 7.81856 125.192 7.68926C125.196 7.62252 125.198 7.57456 125.198 7.54536L125.192 7.23253L125.21 7.12617Z" fill="white"/>
<path d="M137.642 5.88738C137.599 4.78206 137.39 3.96872 137.015 3.44734C136.641 2.92179 136.081 2.65902 135.336 2.65902C134.887 2.65902 134.469 2.76747 134.083 2.98436C133.701 3.19708 133.299 3.62044 132.877 4.25443H132.339C132.347 3.76225 132.489 3.14703 132.765 2.40876C133.526 2.15016 134.418 2.02086 135.443 2.02086C136.747 2.02086 137.746 2.4171 138.44 3.20959C139.134 3.99791 139.481 4.99896 139.481 6.21272C139.481 7.5683 139.088 8.60897 138.304 9.33472C137.524 10.0605 136.483 10.4234 135.183 10.4234C134.052 10.4234 133.179 10.2273 132.564 9.83525C132.391 9.16371 132.274 8.57351 132.215 8.06465C132.452 8.06465 132.643 8.08134 132.789 8.1147C133.36 9.25339 134.152 9.82273 135.165 9.82273C135.89 9.82273 136.487 9.54953 136.956 9.00313C137.429 8.45255 137.666 7.5975 137.666 6.43796L137.37 6.44421C137.315 6.44421 137.218 6.44004 137.08 6.4317L136.158 6.41293C135.559 6.41293 135.212 6.45255 135.118 6.5318C135.027 6.61105 134.934 6.88425 134.84 7.35141L134.751 7.76434H134.331L134.337 7.30136L134.367 6.55057L134.361 6.3316L134.349 5.44317C134.349 5.18874 134.357 4.89051 134.373 4.54849L134.704 4.54223C134.72 4.54223 134.749 4.54432 134.793 4.54849C134.899 5.21168 135.019 5.60375 135.153 5.72471C135.291 5.84567 135.977 5.90615 137.21 5.90615L137.642 5.88738Z" fill="white"/>
<path d="M144.5 5.53702C144.85 5.65381 145.16 5.85819 145.428 6.15016C145.696 6.44213 146.021 6.94473 146.403 7.65798C146.852 8.49635 147.191 9.03441 147.42 9.27216C147.652 9.50574 147.962 9.68092 148.348 9.79771C148.49 9.83942 148.581 9.87278 148.62 9.89781C148.628 9.97289 148.632 10.0313 148.632 10.073C148.632 10.123 148.624 10.2002 148.608 10.3045L147.958 10.292L147.065 10.2669C146.841 10.2669 146.545 10.2815 146.178 10.3107C145.93 9.74348 145.554 9.01564 145.049 8.12722C144.545 7.23462 144.174 6.7049 143.938 6.53806C143.701 6.36705 143.459 6.28154 143.211 6.28154C143.195 6.43587 143.187 6.5756 143.187 6.70073L143.217 7.56413C143.225 7.73931 143.229 7.90615 143.229 8.06465L143.217 8.81543L143.229 9.03441L143.24 9.46611C143.319 9.56204 143.516 9.65381 143.832 9.7414C144.009 9.79145 144.159 9.85819 144.281 9.94161C144.293 10.025 144.299 10.0876 144.299 10.1293C144.299 10.1627 144.295 10.2148 144.287 10.2857C144.109 10.2941 143.966 10.2982 143.855 10.2982C143.564 10.2982 143.244 10.2857 142.898 10.2607L142.501 10.2357L141.969 10.2544L140.923 10.2482L140.361 10.2669L140.355 9.91658C140.391 9.88738 140.576 9.80605 140.911 9.67258L141.065 9.60375C141.238 9.52033 141.355 9.47028 141.414 9.4536C141.493 9.40355 141.544 9.33472 141.567 9.24713C141.591 9.15537 141.603 8.83003 141.603 8.27112L141.585 7.67049L141.591 6.34411L141.585 5.40563L141.597 5.13034L141.585 4.32325L141.603 4.00417C141.603 3.52033 141.573 3.19291 141.514 3.0219C141.392 2.91345 141.156 2.81335 140.805 2.72159C140.596 2.66736 140.454 2.61105 140.379 2.55266L140.421 2.16475C140.495 2.15224 140.574 2.14599 140.657 2.14599C140.945 2.14599 141.23 2.16684 141.514 2.20855C141.802 2.24609 142.17 2.26486 142.62 2.26486L142.874 2.25235L143.583 2.22732C143.69 2.22315 143.835 2.21272 144.021 2.19604L144.228 2.17727L144.375 2.18352C144.387 2.21689 144.393 2.26277 144.393 2.32117C144.393 2.46298 144.387 2.55474 144.375 2.59645C144.135 2.69239 143.887 2.7633 143.631 2.80918C143.434 2.84672 143.311 2.88217 143.264 2.91554C143.217 2.94891 143.193 3.02398 143.193 3.14077C143.193 3.55787 143.197 3.83316 143.205 3.96663L143.217 4.49844L143.205 4.89885V5.37435L143.199 5.91241C143.432 5.83316 143.658 5.71011 143.879 5.54327C144.1 5.37643 144.377 4.99687 144.712 4.40459C145.288 3.38269 145.771 2.7341 146.161 2.45881C146.555 2.17935 146.949 2.03962 147.343 2.03962C147.737 2.03962 148.037 2.14599 148.242 2.35871C148.451 2.56726 148.555 2.81752 148.555 3.10949C148.555 3.32638 148.49 3.51825 148.36 3.68509C148.234 3.85193 148.058 3.93535 147.834 3.93535C147.66 3.93535 147.522 3.89781 147.42 3.82273C147.321 3.74348 147.199 3.59333 147.053 3.37226C146.912 3.14703 146.77 3.03441 146.628 3.03441C146.297 3.03441 145.869 3.50991 145.345 4.4609C145.038 5.01147 144.756 5.37018 144.5 5.53702Z" fill="white"/>
<path d="M155.862 2.33368C155.913 2.45881 156.017 2.81543 156.175 3.40355C156.246 3.67049 156.284 3.95412 156.287 4.25443H155.749C155.371 3.68717 154.981 3.2805 154.579 3.03441C154.177 2.78415 153.728 2.65902 153.231 2.65902C152.62 2.65902 152.128 2.91137 151.753 3.41606C151.245 4.1001 150.991 5.05318 150.991 6.27529C150.991 6.98436 151.034 7.48905 151.121 7.78936C151.263 8.27737 151.442 8.6757 151.659 8.98436C151.824 9.21794 152.041 9.40355 152.309 9.54119C152.656 9.72888 153.026 9.82273 153.42 9.82273C153.854 9.82273 154.272 9.68092 154.674 9.39729C155.079 9.10949 155.468 8.68196 155.838 8.1147C155.984 8.08551 156.175 8.06882 156.412 8.06465C156.396 8.22315 156.37 8.3879 156.335 8.55892C156.323 8.62565 156.278 8.89051 156.199 9.35349L156.146 9.54119L156.063 9.83525C155.822 10.0313 155.483 10.1794 155.046 10.2795C154.612 10.3754 154.078 10.4234 153.444 10.4234C152.959 10.4234 152.5 10.3754 152.067 10.2795C151.637 10.1835 151.268 10.0313 150.961 9.82273C150.512 9.52242 150.159 9.19708 149.903 8.84671C149.647 8.49635 149.456 8.1147 149.329 7.70177C149.207 7.28884 149.146 6.82586 149.146 6.31283C149.146 5.06986 149.532 4.0438 150.305 3.23462C151.081 2.42544 152.07 2.02086 153.272 2.02086C153.761 2.02086 154.22 2.04797 154.65 2.10219C155.083 2.15224 155.487 2.22941 155.862 2.33368Z" fill="white"/>
<path d="M161.265 5.53702C161.616 5.65381 161.925 5.85819 162.193 6.15016C162.461 6.44213 162.786 6.94473 163.169 7.65798C163.618 8.49635 163.957 9.03441 164.185 9.27216C164.418 9.50574 164.727 9.68092 165.114 9.79771C165.255 9.83942 165.346 9.87278 165.385 9.89781C165.393 9.97289 165.397 10.0313 165.397 10.073C165.397 10.123 165.389 10.2002 165.374 10.3045L164.723 10.292L163.831 10.2669C163.606 10.2669 163.311 10.2815 162.944 10.3107C162.696 9.74348 162.319 9.01564 161.815 8.12722C161.31 7.23462 160.94 6.7049 160.703 6.53806C160.467 6.36705 160.225 6.28154 159.976 6.28154C159.961 6.43587 159.953 6.5756 159.953 6.70073L159.982 7.56413C159.99 7.73931 159.994 7.90615 159.994 8.06465L159.982 8.81543L159.994 9.03441L160.006 9.46611C160.085 9.56204 160.282 9.65381 160.597 9.7414C160.774 9.79145 160.924 9.85819 161.046 9.94161C161.058 10.025 161.064 10.0876 161.064 10.1293C161.064 10.1627 161.06 10.2148 161.052 10.2857C160.875 10.2941 160.731 10.2982 160.621 10.2982C160.329 10.2982 160.01 10.2857 159.663 10.2607L159.267 10.2357L158.735 10.2544L157.689 10.2482L157.127 10.2669L157.121 9.91658C157.156 9.88738 157.342 9.80605 157.677 9.67258L157.83 9.60375C158.004 9.52033 158.12 9.47028 158.179 9.4536C158.258 9.40355 158.309 9.33472 158.333 9.24713C158.357 9.15537 158.368 8.83003 158.368 8.27112L158.351 7.67049L158.357 6.34411L158.351 5.40563L158.362 5.13034L158.351 4.32325L158.368 4.00417C158.368 3.52033 158.339 3.19291 158.28 3.0219C158.158 2.91345 157.921 2.81335 157.57 2.72159C157.361 2.66736 157.22 2.61105 157.145 2.55266L157.186 2.16475C157.261 2.15224 157.34 2.14599 157.422 2.14599C157.71 2.14599 157.996 2.16684 158.28 2.20855C158.567 2.24609 158.936 2.26486 159.385 2.26486L159.639 2.25235L160.349 2.22732C160.455 2.22315 160.601 2.21272 160.786 2.19604L160.993 2.17727L161.141 2.18352C161.153 2.21689 161.159 2.26277 161.159 2.32117C161.159 2.46298 161.153 2.55474 161.141 2.59645C160.901 2.69239 160.652 2.7633 160.396 2.80918C160.199 2.84672 160.077 2.88217 160.03 2.91554C159.982 2.94891 159.959 3.02398 159.959 3.14077C159.959 3.55787 159.963 3.83316 159.97 3.96663L159.982 4.49844L159.97 4.89885V5.37435L159.965 5.91241C160.197 5.83316 160.424 5.71011 160.644 5.54327C160.865 5.37643 161.143 4.99687 161.478 4.40459C162.053 3.38269 162.536 2.7341 162.926 2.45881C163.32 2.17935 163.714 2.03962 164.109 2.03962C164.503 2.03962 164.802 2.14599 165.007 2.35871C165.216 2.56726 165.32 2.81752 165.32 3.10949C165.32 3.32638 165.255 3.51825 165.125 3.68509C164.999 3.85193 164.824 3.93535 164.599 3.93535C164.426 3.93535 164.288 3.89781 164.185 3.82273C164.087 3.74348 163.965 3.59333 163.819 3.37226C163.677 3.14703 163.535 3.03441 163.393 3.03441C163.062 3.03441 162.635 3.50991 162.11 4.4609C161.803 5.01147 161.521 5.37018 161.265 5.53702Z" fill="white"/>
<path d="M169.423 8.56517C169.388 8.3316 169.017 7.69552 168.312 6.65693C168.087 6.32742 167.878 6.00209 167.685 5.68092C167.338 5.10115 166.993 4.55474 166.651 4.04171L166.497 3.77894C166.323 3.47862 166.128 3.18248 165.912 2.89051C165.829 2.80292 165.677 2.73827 165.456 2.69656L165.368 2.67153C165.277 2.64651 165.21 2.62982 165.167 2.62148C165.147 2.58394 165.137 2.55057 165.137 2.52138C165.137 2.49635 165.139 2.46507 165.143 2.42753C165.147 2.38582 165.151 2.32534 165.155 2.24609C165.214 2.22106 165.33 2.20855 165.504 2.20855L165.894 2.19604C165.91 2.20021 165.929 2.20438 165.953 2.20855C166.052 2.22523 166.121 2.23358 166.16 2.23358C166.168 2.23358 166.188 2.23149 166.219 2.22732C166.629 2.29406 167.179 2.32742 167.868 2.32742C168.184 2.32742 168.493 2.30448 168.797 2.2586C168.84 2.25026 168.873 2.24609 168.897 2.24609C168.901 2.24609 168.915 2.24818 168.938 2.25235C168.958 2.30657 168.968 2.34828 168.968 2.37748C168.968 2.38582 168.966 2.41084 168.962 2.45255C168.958 2.48175 168.956 2.50469 168.956 2.52138L168.962 2.70282C168.883 2.73618 168.775 2.76538 168.637 2.79041L168.371 2.84046C168.245 2.86548 168.113 2.88843 167.975 2.90928C167.943 2.91345 167.928 2.94891 167.928 3.01564C167.983 3.15328 168.101 3.36601 168.282 3.65381L168.442 3.92909L168.755 4.39833L169.583 5.74974L170.192 6.91345L171.752 3.4098C171.871 3.14286 171.93 2.98853 171.93 2.94682C171.93 2.83003 171.802 2.77164 171.545 2.77164L171.327 2.72784C171.232 2.71116 171.169 2.69864 171.138 2.6903C171.13 2.66111 171.118 2.50678 171.102 2.22732C171.169 2.22732 171.339 2.23983 171.61 2.26486L172.314 2.29614L172.462 2.32117H172.746L172.846 2.31491C172.929 2.3024 173.01 2.29406 173.088 2.28989L173.283 2.27112L173.337 2.26486C173.396 2.26069 173.453 2.25443 173.508 2.24609L173.502 2.71533L173.425 2.74035C173.098 2.78624 172.864 2.85714 172.722 2.95308C172.584 3.04901 172.424 3.30344 172.243 3.71637L170.156 8.44004C169.557 9.79979 168.751 10.4797 167.738 10.4797C167.336 10.4797 167.015 10.3754 166.775 10.1668C166.534 9.95829 166.414 9.70803 166.414 9.41606C166.414 9.19082 166.485 8.99687 166.627 8.8342C166.769 8.66736 166.958 8.58394 167.194 8.58394C167.317 8.58394 167.435 8.61105 167.549 8.66528C167.667 8.71533 167.811 8.87591 167.981 9.14703C168.123 9.36809 168.266 9.47862 168.412 9.47862C168.787 9.47862 169.124 9.17414 169.423 8.56517Z" fill="white"/>
<path d="M173.597 2.62148L173.591 2.14599L175.004 2.23983L175.636 2.23358H175.867C176.107 2.23358 176.484 2.21898 176.996 2.18978C177.288 2.16893 177.471 2.1585 177.546 2.1585C178.042 2.1585 178.417 2.1877 178.669 2.24609C179.055 2.32951 179.361 2.46298 179.585 2.64651C179.814 2.83003 180.009 3.09281 180.171 3.43483C180.336 3.77268 180.419 4.08759 180.419 4.37956C180.419 5.10532 180.202 5.69552 179.769 6.15016C179.339 6.60063 178.795 6.82586 178.137 6.82586C177.908 6.82586 177.69 6.79666 177.481 6.73827C177.276 6.67987 177.083 6.59228 176.901 6.4755C176.882 6.35454 176.872 6.1877 176.872 5.97497C176.966 5.98332 177.051 5.98957 177.126 5.99374C177.205 5.99791 177.274 6 177.333 6C177.668 6 177.95 5.90198 178.178 5.70594C178.482 5.45151 178.634 5.03858 178.634 4.46715C178.634 4.05839 178.567 3.72471 178.433 3.46611C178.303 3.20334 178.147 3.02607 177.966 2.93431C177.713 2.80918 177.43 2.74661 177.114 2.74661C176.819 2.74661 176.608 2.79249 176.482 2.88425C176.45 2.93848 176.427 2.99062 176.411 3.04067L176.452 5.98749L176.44 6.23775L176.458 6.50052C176.462 6.55892 176.464 6.64442 176.464 6.75704V7.27007L176.47 8.08968L176.458 9.06569C176.458 9.20334 176.47 9.38895 176.494 9.62252L177.67 9.77894C177.686 9.87904 177.694 9.95829 177.694 10.0167C177.694 10.0792 177.684 10.1668 177.664 10.2795C177.566 10.2961 177.491 10.3045 177.439 10.3045C177.317 10.3045 177.087 10.2899 176.748 10.2607C176.409 10.2273 176.023 10.2106 175.589 10.2106C175.1 10.2106 174.635 10.244 174.194 10.3107C174.119 10.3233 174.001 10.3337 173.839 10.342C173.823 10.2211 173.816 10.1314 173.816 10.073C173.816 10.0355 173.819 9.97706 173.827 9.89781L174.188 9.77268C174.436 9.69343 174.651 9.5975 174.832 9.48488C174.868 9.36392 174.886 9.25339 174.886 9.15329C174.886 9.11157 174.884 9.06361 174.88 9.00939C174.876 8.88008 174.874 8.69864 174.874 8.46507L174.856 6.70699L174.791 4.72367C174.763 3.78102 174.742 3.27216 174.726 3.19708C174.698 3.07612 174.651 2.98227 174.584 2.91554C174.517 2.84463 174.405 2.79458 174.247 2.76538C173.92 2.70699 173.703 2.65902 173.597 2.62148Z" fill="white"/>
<path d="M188.021 2.33368C188.073 2.45881 188.177 2.81543 188.335 3.40355C188.406 3.67049 188.443 3.95412 188.447 4.25443H187.909C187.531 3.68717 187.14 3.2805 186.738 3.03441C186.336 2.78415 185.887 2.65902 185.391 2.65902C184.78 2.65902 184.287 2.91137 183.913 3.41606C183.404 4.1001 183.15 5.05318 183.15 6.27529C183.15 6.98436 183.193 7.48905 183.28 7.78936C183.422 8.27737 183.601 8.6757 183.818 8.98436C183.984 9.21794 184.2 9.40355 184.468 9.54119C184.815 9.72888 185.186 9.82273 185.58 9.82273C186.013 9.82273 186.431 9.68092 186.833 9.39729C187.239 9.10949 187.627 8.68196 187.998 8.1147C188.143 8.08551 188.335 8.06882 188.571 8.06465C188.555 8.22315 188.53 8.3879 188.494 8.55892C188.482 8.62565 188.437 8.89051 188.358 9.35349L188.305 9.54119L188.222 9.83525C187.982 10.0313 187.643 10.1794 187.205 10.2795C186.772 10.3754 186.238 10.4234 185.603 10.4234C185.119 10.4234 184.66 10.3754 184.226 10.2795C183.796 10.1835 183.428 10.0313 183.121 9.82273C182.671 9.52242 182.318 9.19708 182.062 8.84671C181.806 8.49635 181.615 8.1147 181.489 7.70177C181.367 7.28884 181.306 6.82586 181.306 6.31283C181.306 5.06986 181.692 4.0438 182.464 3.23462C183.241 2.42544 184.23 2.02086 185.432 2.02086C185.921 2.02086 186.38 2.04797 186.809 2.10219C187.243 2.15224 187.647 2.22941 188.021 2.33368Z" fill="white"/>
<path d="M192.094 8.03962C194.191 5.79979 195.563 4.2878 196.209 3.50365C196.209 3.19499 196.199 3.01773 196.179 2.97185C196.16 2.92179 196.095 2.86966 195.984 2.81543C195.874 2.75704 195.659 2.68822 195.34 2.60897C195.186 2.57143 195.086 2.54223 195.038 2.52138C195.046 2.36705 195.062 2.24818 195.086 2.16475L195.251 2.1585C195.582 2.1585 195.803 2.16475 195.913 2.17727C196.225 2.21898 196.536 2.23983 196.847 2.23983C197.352 2.23983 197.813 2.21689 198.231 2.17101C198.384 2.15433 198.507 2.14599 198.597 2.14599C198.684 2.14599 198.808 2.15224 198.97 2.16475C198.966 2.3316 198.956 2.47967 198.94 2.60897C198.491 2.70907 198.195 2.79041 198.053 2.85297C197.915 2.91137 197.846 3.01773 197.846 3.17205V4.07925L197.852 5.4682L197.841 6.26277L197.858 7.38895V8.27737L197.87 9.01564C197.87 9.16163 197.866 9.32847 197.858 9.51616C197.941 9.54119 198.018 9.56204 198.089 9.57873C198.459 9.66215 198.739 9.74765 198.928 9.83525L198.946 10.2732L198.692 10.2795C198.625 10.2795 198.548 10.2753 198.461 10.2669L198.018 10.2419C197.695 10.2044 197.178 10.1856 196.469 10.1856C196.106 10.1856 195.829 10.1981 195.636 10.2231C195.387 10.2523 195.237 10.2669 195.186 10.2669C195.143 10.2669 195.082 10.2544 195.003 10.2294C195.007 10.0292 195.017 9.89364 195.033 9.82273L195.435 9.72263L195.665 9.67883C195.913 9.63712 196.075 9.60167 196.15 9.57247C196.201 9.26382 196.227 8.52555 196.227 7.35766L196.221 5.51199L196.233 4.34828L192.094 8.85923C192.098 9.32638 192.104 9.57039 192.112 9.59124C192.136 9.62044 192.205 9.64129 192.319 9.65381L192.703 9.71637C193.042 9.78311 193.231 9.83107 193.271 9.86027C193.283 9.9562 193.289 10.0209 193.289 10.0542C193.289 10.1084 193.281 10.1835 193.265 10.2795L192.898 10.2857C192.749 10.2857 192.538 10.2732 192.266 10.2482L191.822 10.2419L191.521 10.2231L190.983 10.2044C190.81 10.2044 190.599 10.2169 190.35 10.2419C190.098 10.2669 189.761 10.2795 189.34 10.2795C189.34 10.1502 189.351 10.0021 189.375 9.83525C189.411 9.8269 189.493 9.81439 189.623 9.79771L189.878 9.74765C190.126 9.70177 190.313 9.65172 190.439 9.5975C190.479 8.80918 190.498 8.12096 190.498 7.53285V6.70073L190.516 4.58603C190.516 3.94786 190.494 3.39937 190.451 2.94056C190.447 2.91554 190.433 2.87174 190.41 2.80918C190.386 2.79666 190.35 2.78832 190.303 2.78415C190.268 2.77998 190.23 2.77372 190.191 2.76538C190.01 2.73201 189.846 2.71116 189.7 2.70282L189.612 2.67779C189.501 2.66528 189.42 2.64859 189.369 2.62774C189.357 2.50678 189.351 2.42961 189.351 2.39625C189.351 2.34619 189.363 2.27737 189.387 2.18978C189.474 2.16893 189.566 2.1585 189.665 2.1585C189.952 2.1585 190.287 2.17727 190.67 2.21481C191.017 2.24818 191.304 2.26486 191.533 2.26486C191.852 2.26486 192.146 2.25026 192.414 2.22106C192.745 2.18352 192.94 2.16475 192.999 2.16475C193.074 2.16475 193.168 2.17518 193.283 2.19604L193.289 2.38373C193.289 2.45047 193.281 2.5318 193.265 2.62774L192.224 2.80292C192.165 2.81126 192.13 2.90928 192.118 3.09698C192.106 3.28467 192.1 3.50782 192.1 3.76642L192.106 4.06048L192.1 4.62357L192.106 4.9489L192.089 5.37435C192.089 5.42857 192.092 5.52659 192.1 5.6684C192.108 5.8561 192.112 6.04171 192.112 6.22523C192.112 6.37539 192.108 6.52555 192.1 6.6757L192.083 7.00104L192.094 8.03962Z" fill="white"/>
<path d="M199.969 6.15016C199.969 5.63295 200.063 5.11366 200.253 4.59228C200.39 4.21689 200.584 3.87278 200.832 3.55996C201.08 3.24713 201.392 2.96976 201.766 2.72784C202.14 2.48175 202.523 2.30657 202.913 2.20229C203.303 2.09385 203.738 2.03962 204.219 2.03962C205.039 2.03962 205.75 2.20229 206.353 2.52763C206.956 2.85297 207.431 3.29301 207.778 3.84776C208.227 4.56934 208.452 5.32638 208.452 6.11887C208.452 7.29927 208.072 8.31074 207.311 9.15329C206.554 9.99583 205.5 10.4171 204.148 10.4171C203.813 10.4171 203.5 10.3942 203.208 10.3483C202.988 10.3149 202.795 10.269 202.629 10.2106C202.329 10.1064 202.162 10.0459 202.127 10.0292C201.697 9.77059 201.352 9.50574 201.092 9.23462C200.832 8.9635 200.611 8.65693 200.43 8.31491C200.331 8.12304 200.219 7.77685 200.093 7.27633C200.01 6.95516 199.969 6.57977 199.969 6.15016ZM203.995 2.65902C203.652 2.65902 203.348 2.74453 203.084 2.91554C202.82 3.08238 202.621 3.26799 202.487 3.47237C202.262 3.81856 202.103 4.19812 202.008 4.61105C201.914 5.01981 201.866 5.51825 201.866 6.10636C201.866 6.46507 201.88 6.72159 201.908 6.87591C201.916 6.92596 201.928 7.01147 201.943 7.13243C201.979 7.44108 202.02 7.66632 202.067 7.80813C202.237 8.33785 202.357 8.66528 202.428 8.79041C202.546 9.00313 202.722 9.21376 202.954 9.42231C203.072 9.53076 203.244 9.63087 203.468 9.72263C203.693 9.81022 203.918 9.85401 204.142 9.85401C204.568 9.85401 204.962 9.74974 205.325 9.54119C205.691 9.32847 205.985 8.96976 206.206 8.46507C206.426 7.96038 206.537 7.30344 206.537 6.49427C206.537 6.16058 206.515 5.70803 206.472 5.1366L206.442 5.01773C206.43 4.98436 206.411 4.89885 206.383 4.76121C206.237 4.07716 205.957 3.55579 205.543 3.19708C205.134 2.83837 204.617 2.65902 203.995 2.65902Z" fill="white"/>
<path d="M209.404 10.2795C209.404 10.1543 209.416 10.0063 209.439 9.83525L210.178 9.6976C210.269 9.67675 210.377 9.64338 210.503 9.5975L210.58 8.03337C210.564 7.47028 210.557 7.04901 210.557 6.76955L210.562 6.6194C210.574 6.44838 210.58 6.01877 210.58 5.33055L210.568 5.14911L210.58 4.62357L210.574 4.07925V3.81022C210.574 3.5683 210.557 3.28467 210.521 2.95933C210.517 2.93014 210.501 2.88008 210.474 2.80918C210.442 2.79666 210.407 2.78832 210.367 2.78415C210.332 2.77998 210.294 2.77372 210.255 2.76538C210.101 2.73618 209.938 2.71533 209.764 2.70282L209.676 2.67779C209.569 2.66528 209.489 2.64859 209.433 2.62774C209.422 2.50678 209.416 2.42961 209.416 2.39625C209.416 2.34619 209.427 2.27737 209.451 2.18978C209.53 2.1731 209.64 2.16475 209.782 2.16475C209.924 2.16475 210.023 2.16267 210.078 2.1585C210.559 2.21272 210.915 2.24192 211.148 2.24609C211.254 2.24609 211.361 2.25026 211.467 2.2586C211.577 2.26277 211.674 2.26486 211.757 2.26486C211.887 2.26486 212.204 2.244 212.708 2.20229C212.791 2.18144 212.882 2.17101 212.98 2.17101C213.126 2.17101 213.248 2.17935 213.347 2.19604C213.351 2.28363 213.353 2.34619 213.353 2.38373C213.353 2.45047 213.345 2.5318 213.329 2.62774L212.289 2.80292C212.202 2.84463 212.159 2.90511 212.159 2.98436L212.176 3.21585L212.182 3.31595L212.176 3.59124L212.165 3.80396V3.85401C212.168 3.8999 212.17 3.93952 212.17 3.97289L212.165 4.76747C212.168 4.84254 212.17 4.89885 212.17 4.93639C212.17 4.95725 212.167 5.02398 212.159 5.1366C212.155 5.20334 212.153 5.27216 212.153 5.34307C212.153 5.40563 212.159 5.5537 212.17 5.78728C212.281 5.80813 212.373 5.82065 212.448 5.82482L213.323 5.84359H213.749L214.813 5.84984L215.848 5.81856C215.982 5.81856 216.123 5.80396 216.273 5.77477C216.281 5.63295 216.287 5.28467 216.291 4.72993L216.303 4.44838L216.267 3.38478L216.226 2.94682C216.214 2.91762 216.186 2.89051 216.143 2.86548C216.005 2.78206 215.729 2.68822 215.315 2.58394C215.241 2.56726 215.17 2.5464 215.103 2.52138C215.111 2.37539 215.126 2.25652 215.15 2.16475C215.237 2.16058 215.29 2.1585 215.31 2.1585L215.883 2.16475C216.25 2.21481 216.622 2.23983 217 2.23983C217.087 2.23983 217.156 2.23775 217.207 2.23358L217.976 2.20855C218.047 2.20438 218.116 2.20021 218.183 2.19604C218.325 2.16267 218.47 2.14599 218.62 2.14599C218.734 2.14599 218.872 2.15224 219.034 2.16475C219.03 2.32742 219.02 2.4755 219.004 2.60897C218.642 2.68822 218.403 2.74661 218.289 2.78415C218.179 2.81752 218.066 2.86548 217.952 2.92805L217.917 3.05318V3.15954L217.923 3.32221L217.917 3.40355C217.909 3.49114 217.905 3.55787 217.905 3.60375V3.76017C217.909 3.94786 217.911 4.05214 217.911 4.07299V4.86757L217.917 5.4682L217.905 6.26277C217.901 6.4463 217.907 6.82169 217.923 7.38895V8.27737L217.934 9.01564C217.934 9.15329 217.93 9.32013 217.923 9.51616C218.005 9.54119 218.082 9.56204 218.153 9.57873C218.524 9.66215 218.803 9.74765 218.993 9.83525L219.01 10.2732C218.853 10.2774 218.76 10.2795 218.732 10.2795C218.543 10.2795 218.326 10.2669 218.082 10.2419C217.759 10.2044 217.239 10.1856 216.521 10.1856C216.198 10.1856 215.781 10.2127 215.268 10.2669C215.213 10.2669 215.146 10.2544 215.067 10.2294C215.071 10.0375 215.081 9.90198 215.097 9.82273L215.552 9.71011L216.031 9.62878C216.078 9.61627 216.139 9.5975 216.214 9.57247C216.257 9.23462 216.281 8.67362 216.285 7.88947L216.291 7.35766C216.267 7.1366 216.255 6.87174 216.255 6.56309C216.11 6.55057 215.952 6.54223 215.783 6.53806L213.039 6.50678L212.986 6.50052L212.945 6.49427C212.917 6.49427 212.886 6.49635 212.85 6.50052C212.748 6.50469 212.661 6.50678 212.59 6.50678H212.425C212.35 6.50678 212.265 6.52138 212.17 6.55057L212.147 7.01981V7.10115C212.155 7.21376 212.159 7.28676 212.159 7.32013V9.25965C212.159 9.36809 212.165 9.47862 212.176 9.59124L212.235 9.62878L213.105 9.77268C213.148 9.78936 213.181 9.79979 213.205 9.80396C213.256 9.81648 213.3 9.83525 213.335 9.86027C213.347 9.9562 213.353 10.0209 213.353 10.0542C213.353 10.1084 213.345 10.1835 213.329 10.2795C213.187 10.2836 213.067 10.2857 212.969 10.2857C212.882 10.2857 212.801 10.2836 212.726 10.2795C212.691 10.2795 212.657 10.2774 212.626 10.2732L211.792 10.2357C211.595 10.2148 211.319 10.2044 210.964 10.2044L210.84 10.2106C210.675 10.219 210.578 10.2252 210.551 10.2294C210.306 10.2628 209.924 10.2795 209.404 10.2795Z" fill="white"/>
<path d="M219.879 10.2795C219.879 10.1543 219.891 10.0063 219.915 9.83525L220.654 9.6976C220.744 9.67675 220.853 9.64338 220.979 9.5975L221.056 8.03337C221.04 7.47028 221.032 7.04901 221.032 6.76955L221.038 6.6194C221.05 6.44838 221.056 6.01877 221.056 5.33055L221.044 5.14911L221.056 4.62357L221.05 4.07925V3.81022C221.05 3.5683 221.032 3.28467 220.997 2.95933C220.993 2.93014 220.977 2.88008 220.949 2.80918C220.918 2.79666 220.882 2.78832 220.843 2.78415C220.807 2.77998 220.77 2.77372 220.731 2.76538C220.577 2.73618 220.413 2.71533 220.24 2.70282L220.151 2.67779C220.045 2.66528 219.964 2.64859 219.909 2.62774C219.897 2.50678 219.891 2.42961 219.891 2.39625C219.891 2.34619 219.903 2.27737 219.927 2.18978C220.005 2.1731 220.116 2.16475 220.258 2.16475C220.4 2.16475 220.498 2.16267 220.553 2.1585C221.034 2.21272 221.391 2.24192 221.623 2.24609C221.73 2.24609 221.836 2.25026 221.942 2.2586C222.053 2.26277 222.149 2.26486 222.232 2.26486C222.362 2.26486 222.679 2.244 223.184 2.20229C223.267 2.18144 223.357 2.17101 223.456 2.17101C223.602 2.17101 223.724 2.17935 223.822 2.19604C223.826 2.28363 223.828 2.34619 223.828 2.38373C223.828 2.45047 223.82 2.5318 223.805 2.62774L222.764 2.80292C222.677 2.84463 222.634 2.90511 222.634 2.98436L222.652 3.21585L222.658 3.31595L222.652 3.59124L222.64 3.80396V3.85401C222.644 3.8999 222.646 3.93952 222.646 3.97289L222.64 4.76747C222.644 4.84254 222.646 4.89885 222.646 4.93639C222.646 4.95725 222.642 5.02398 222.634 5.1366C222.63 5.20334 222.628 5.27216 222.628 5.34307C222.628 5.40563 222.634 5.5537 222.646 5.78728C222.756 5.80813 222.849 5.82065 222.924 5.82482L223.799 5.84359H224.224L225.288 5.84984L226.323 5.81856C226.457 5.81856 226.599 5.80396 226.749 5.77477C226.757 5.63295 226.762 5.28467 226.766 4.72993L226.778 4.44838L226.743 3.38478L226.701 2.94682C226.69 2.91762 226.662 2.89051 226.619 2.86548C226.481 2.78206 226.205 2.68822 225.791 2.58394C225.716 2.56726 225.645 2.5464 225.578 2.52138C225.586 2.37539 225.602 2.25652 225.625 2.16475C225.712 2.16058 225.765 2.1585 225.785 2.1585L226.358 2.16475C226.725 2.21481 227.097 2.23983 227.476 2.23983C227.562 2.23983 227.631 2.23775 227.683 2.23358L228.451 2.20855C228.522 2.20438 228.591 2.20021 228.658 2.19604C228.8 2.16267 228.946 2.14599 229.096 2.14599C229.21 2.14599 229.348 2.15224 229.509 2.16475C229.505 2.32742 229.496 2.4755 229.48 2.60897C229.117 2.68822 228.879 2.74661 228.765 2.78415C228.654 2.81752 228.542 2.86548 228.428 2.92805L228.392 3.05318V3.15954L228.398 3.32221L228.392 3.40355C228.384 3.49114 228.38 3.55787 228.38 3.60375V3.76017C228.384 3.94786 228.386 4.05214 228.386 4.07299V4.86757L228.392 5.4682L228.38 6.26277C228.376 6.4463 228.382 6.82169 228.398 7.38895V8.27737L228.41 9.01564C228.41 9.15329 228.406 9.32013 228.398 9.51616C228.481 9.54119 228.558 9.56204 228.629 9.57873C228.999 9.66215 229.279 9.74765 229.468 9.83525L229.486 10.2732C229.328 10.2774 229.235 10.2795 229.208 10.2795C229.019 10.2795 228.802 10.2669 228.558 10.2419C228.234 10.2044 227.714 10.1856 226.997 10.1856C226.674 10.1856 226.256 10.2127 225.744 10.2669C225.688 10.2669 225.621 10.2544 225.543 10.2294C225.547 10.0375 225.556 9.90198 225.572 9.82273L226.027 9.71011L226.506 9.62878C226.554 9.61627 226.615 9.5975 226.69 9.57247C226.733 9.23462 226.757 8.67362 226.76 7.88947L226.766 7.35766C226.743 7.1366 226.731 6.87174 226.731 6.56309C226.585 6.55057 226.427 6.54223 226.258 6.53806L223.515 6.50678L223.462 6.50052L223.42 6.49427C223.393 6.49427 223.361 6.49635 223.326 6.50052C223.223 6.50469 223.137 6.50678 223.066 6.50678H222.9C222.825 6.50678 222.741 6.52138 222.646 6.55057L222.622 7.01981V7.10115C222.63 7.21376 222.634 7.28676 222.634 7.32013V9.25965C222.634 9.36809 222.64 9.47862 222.652 9.59124L222.711 9.62878L223.58 9.77268C223.623 9.78936 223.657 9.79979 223.68 9.80396C223.732 9.81648 223.775 9.83525 223.811 9.86027C223.822 9.9562 223.828 10.0209 223.828 10.0542C223.828 10.1084 223.82 10.1835 223.805 10.2795C223.663 10.2836 223.543 10.2857 223.444 10.2857C223.357 10.2857 223.277 10.2836 223.202 10.2795C223.166 10.2795 223.133 10.2774 223.101 10.2732L222.268 10.2357C222.071 10.2148 221.795 10.2044 221.44 10.2044L221.316 10.2106C221.15 10.219 221.054 10.2252 221.026 10.2294C220.782 10.2628 220.4 10.2795 219.879 10.2795Z" fill="white"/>
<path d="M233.151 5.64964C233.581 5.6121 233.971 5.59333 234.321 5.59333C235.437 5.59333 236.259 5.81022 236.787 6.244C237.315 6.67779 237.579 7.21376 237.579 7.85193C237.579 8.60688 237.285 9.20959 236.698 9.66006C236.111 10.1064 235.378 10.3295 234.499 10.3295C234.337 10.3295 234.065 10.3149 233.683 10.2857C233.423 10.2649 233.104 10.2544 232.725 10.2544C232.56 10.2544 232.248 10.269 231.791 10.2982L230.408 10.3545L230.42 9.85401C230.499 9.82899 230.613 9.80605 230.763 9.78519C231.046 9.74348 231.255 9.68926 231.389 9.62252C231.492 9.52659 231.543 9.09072 231.543 8.31491C231.543 6.84254 231.533 5.57039 231.513 4.49844C231.498 3.42231 231.466 2.85714 231.419 2.80292C231.376 2.74453 231.242 2.70907 231.017 2.69656C230.93 2.69239 230.737 2.66945 230.438 2.62774L230.42 2.18352L230.686 2.17727C231.001 2.17727 231.429 2.20021 231.969 2.24609L232.465 2.28363C232.58 2.28363 232.757 2.2732 232.997 2.25235L233.346 2.22106C233.575 2.20855 233.734 2.19604 233.825 2.18352C233.963 2.16267 234.115 2.15224 234.28 2.15224L234.286 2.28363L234.274 2.49635C234.27 2.52138 234.268 2.55892 234.268 2.60897C233.665 2.72993 233.326 2.82377 233.251 2.89051C233.181 2.95725 233.145 3.14494 233.145 3.4536L233.151 3.76642C233.159 3.92075 233.163 4.1293 233.163 4.39208L233.151 5.64964ZM233.234 9.59124C233.486 9.70386 233.724 9.76017 233.949 9.76017C235.226 9.76017 235.864 9.17623 235.864 8.00834C235.864 6.77372 235.22 6.15641 233.931 6.15641C233.585 6.15641 233.328 6.17727 233.163 6.21898C233.155 6.37748 233.151 6.50261 233.151 6.59437L233.163 6.98853L233.157 7.91449L233.175 9.20334V9.30344C233.175 9.39103 233.194 9.48697 233.234 9.59124ZM238.075 10.3045V9.85401C238.154 9.82899 238.284 9.79354 238.466 9.74765C238.722 9.68092 238.913 9.6121 239.039 9.54119C239.11 9.41189 239.145 9.23253 239.145 9.00313L239.14 8.26486L239.151 6.83837L239.145 6.50052C239.173 5.67466 239.187 5.24922 239.187 5.22419L239.175 4.39208L239.193 4.05422L239.163 3.34098L239.157 3.07195C239.153 3.03024 239.14 2.9635 239.116 2.87174C238.954 2.79249 238.692 2.74244 238.33 2.72159C238.243 2.71741 238.174 2.71116 238.123 2.70282L238.105 2.15224L239.796 2.22732C240.005 2.23566 240.135 2.23983 240.186 2.23983C240.418 2.23983 240.791 2.22315 241.303 2.18978C241.591 2.16893 241.772 2.15641 241.847 2.15224C241.851 2.23149 241.853 2.29823 241.853 2.35245C241.853 2.42336 241.849 2.51512 241.841 2.62774C241.683 2.68613 241.502 2.74244 241.297 2.79666C241.096 2.84672 240.931 2.89885 240.801 2.95308C240.777 3.06152 240.765 3.21794 240.765 3.42231C240.765 3.60167 240.771 3.74765 240.783 3.86027C240.771 4.56517 240.765 5.1074 240.765 5.48697L240.771 7.13869L240.753 7.97706L240.765 9.22836L240.759 9.46611C240.759 9.49948 240.767 9.54745 240.783 9.61001C241.023 9.66423 241.242 9.70177 241.439 9.72263C241.475 9.7268 241.595 9.74348 241.8 9.77268C241.816 9.89781 241.823 10.0021 241.823 10.0855C241.823 10.1314 241.821 10.2023 241.817 10.2982C241.766 10.2982 241.727 10.3003 241.699 10.3045C241.573 10.3128 241.5 10.317 241.481 10.317C241.453 10.317 241.402 10.3107 241.327 10.2982C241.272 10.2899 241.01 10.2607 240.541 10.2106L239.494 10.1981C239.285 10.1981 238.982 10.219 238.584 10.2607C238.324 10.2857 238.154 10.3003 238.075 10.3045Z" fill="white"/>
<path d="M242.355 2.20229C242.497 2.19812 242.612 2.19604 242.698 2.19604C242.793 2.19604 242.87 2.19812 242.929 2.20229L243.248 2.22732L243.396 2.22106C243.416 2.22106 243.487 2.23149 243.609 2.25235C243.829 2.28989 244.147 2.30865 244.561 2.30865C245.073 2.30865 245.558 2.27529 246.015 2.20855C246.078 2.21272 246.147 2.21898 246.222 2.22732C246.214 2.36496 246.21 2.50261 246.21 2.64025C246.151 2.66945 246.109 2.68822 246.086 2.69656L245.5 2.80292C245.453 2.81543 245.388 2.83837 245.305 2.87174C245.309 2.94682 245.317 3.00104 245.329 3.03441C245.617 3.55579 245.887 3.98957 246.139 4.33577L246.712 5.20542L246.777 5.30553L247.114 4.86757L247.847 3.73514C248.025 3.45568 248.137 3.24713 248.184 3.10949C248.2 3.06778 248.208 3.02815 248.208 2.99062L248.19 2.89051C248.111 2.84463 248.048 2.81543 248.001 2.80292C247.974 2.79875 247.899 2.79458 247.776 2.79041C247.572 2.78624 247.388 2.76955 247.227 2.74035C247.215 2.65693 247.209 2.59437 247.209 2.55266C247.209 2.5318 247.213 2.48175 247.221 2.4025C247.221 2.37331 247.223 2.32534 247.227 2.2586C247.27 2.25443 247.309 2.244 247.345 2.22732C247.7 2.25235 248.433 2.26486 249.544 2.26486C249.686 2.26486 249.812 2.2586 249.922 2.24609C250.033 2.23358 250.1 2.22732 250.123 2.22732C250.163 2.22732 250.222 2.23358 250.301 2.24609C250.32 2.32951 250.33 2.40459 250.33 2.47132C250.33 2.51303 250.328 2.57977 250.324 2.67153L249.414 2.878C249.339 2.9072 249.256 2.96559 249.166 3.05318C249.075 3.1366 248.831 3.44943 248.433 3.99166L247.575 5.16788C247.477 5.3097 247.394 5.4244 247.327 5.51199C247.264 5.59541 247.207 5.67049 247.156 5.73723L247.244 5.86861C247.461 6.19812 247.682 6.52972 247.907 6.8634L249.083 8.70282C249.394 9.19082 249.625 9.49114 249.775 9.60375C249.881 9.683 250.151 9.76642 250.585 9.85401C250.596 9.93744 250.602 9.99166 250.602 10.0167C250.602 10.0375 250.592 10.1147 250.573 10.2482L250.59 10.3045L250.171 10.317C250.08 10.317 249.903 10.3066 249.639 10.2857L248.911 10.2357L248.835 10.2231C248.752 10.219 248.695 10.2169 248.663 10.2169C248.415 10.2169 248.121 10.2315 247.782 10.2607C247.443 10.2899 247.195 10.3045 247.037 10.3045C246.935 10.3045 246.768 10.3003 246.535 10.292V10.1293C246.535 10.0542 246.539 9.97706 246.547 9.89781C246.85 9.81439 247.168 9.74557 247.499 9.69135C247.542 9.66215 247.591 9.63295 247.646 9.60375L247.652 9.53493C247.652 9.49739 247.646 9.45985 247.635 9.42231C247.611 9.34307 247.556 9.22836 247.469 9.07821C247.296 8.78624 247.061 8.43379 246.766 8.02085L246.062 7.02607C245.971 7.13869 245.654 7.60167 245.11 8.41502C244.937 8.62357 244.791 8.8488 244.673 9.09072C244.594 9.24505 244.555 9.34307 244.555 9.38478L244.561 9.43483L244.637 9.54745C244.783 9.61835 244.964 9.69135 245.181 9.76642C245.398 9.83733 245.538 9.8853 245.601 9.91032L245.636 10.1981V10.2294L245.625 10.2982C245.51 10.3149 245.433 10.3233 245.394 10.3233C245.331 10.3233 245.142 10.3066 244.827 10.2732C244.72 10.2607 244.529 10.2523 244.253 10.2482L243.975 10.2419L242.669 10.3045C242.641 10.3045 242.549 10.3024 242.391 10.2982L242.367 10.0167C242.367 9.97915 242.373 9.92492 242.385 9.85401C242.452 9.84567 242.537 9.83525 242.639 9.82273C242.947 9.79354 243.183 9.73514 243.349 9.64755C243.416 9.61001 243.54 9.48279 243.721 9.2659C244.001 8.94056 244.253 8.62148 244.478 8.30865C244.608 8.12513 244.71 7.98749 244.785 7.89572C244.994 7.59124 245.307 7.15537 245.725 6.58811L245.376 6.03128C245.124 5.70177 244.929 5.42857 244.791 5.21168L244.442 4.67362C244.308 4.44004 244.22 4.29406 244.176 4.23566C243.987 3.97706 243.762 3.63087 243.502 3.19708C243.404 3.03858 243.278 2.92179 243.124 2.84672C242.97 2.77164 242.72 2.72367 242.373 2.70282V2.60897C242.373 2.56309 242.371 2.52972 242.367 2.50886C242.352 2.42961 242.344 2.37748 242.344 2.35245L242.355 2.20229Z" fill="white"/>
<path d="M254.013 10.2795C254.013 10.1502 254.025 10.0021 254.049 9.83525C254.084 9.8269 254.167 9.81439 254.297 9.79771L254.551 9.74765C254.8 9.70177 254.987 9.65172 255.113 9.5975L255.19 8.03337L255.166 6.76955L255.172 6.37539L255.19 4.62357L255.184 4.07925V3.81022C255.184 3.31387 255.15 2.98019 255.083 2.80918C255.06 2.79666 255.024 2.78832 254.977 2.78415C254.941 2.77998 254.904 2.77372 254.865 2.76538C254.683 2.73201 254.52 2.71116 254.374 2.70282L254.285 2.67779C254.175 2.66528 254.094 2.64859 254.043 2.62774C254.031 2.50678 254.025 2.42961 254.025 2.39625C254.025 2.34619 254.037 2.27737 254.061 2.18978C254.147 2.16893 254.24 2.1585 254.338 2.1585C254.575 2.1585 254.819 2.16893 255.071 2.18978C255.785 2.244 256.561 2.27112 257.401 2.27112L259.304 2.23983L260.705 2.25235C261.754 2.25235 262.495 2.22523 262.928 2.17101C263.098 2.15016 263.214 2.13973 263.277 2.13973C263.352 2.13973 263.474 2.14807 263.643 2.16475C263.639 2.3316 263.63 2.47967 263.614 2.60897C263.082 2.71741 262.731 2.82377 262.562 2.92805C262.53 3.01147 262.514 3.24713 262.514 3.63504V3.76017L262.52 4.07299L262.526 5.4682L262.52 6.56934L262.532 7.38895V8.27737L262.544 9.01564C262.544 9.16163 262.54 9.32847 262.532 9.51616C262.615 9.54119 262.692 9.56204 262.763 9.57873C263.133 9.66215 263.413 9.74765 263.602 9.83525L263.62 10.2732L263.342 10.2795C263.291 10.2795 263.222 10.2753 263.135 10.2669L262.692 10.2419C262.368 10.2044 261.852 10.1856 261.143 10.1856C260.91 10.1856 260.695 10.194 260.498 10.2106L259.878 10.2669C259.819 10.2669 259.752 10.2544 259.677 10.2294C259.681 10.0292 259.69 9.89364 259.706 9.82273L260.108 9.72263L260.339 9.67883C260.587 9.63712 260.749 9.60167 260.824 9.57247C260.875 9.36809 260.9 8.07091 260.9 5.68092L260.865 2.97185C260.739 2.95933 260.581 2.95099 260.392 2.94682L257.649 2.91554L257.596 2.90928C257.584 2.90511 257.57 2.90302 257.554 2.90302C257.527 2.90302 257.495 2.90511 257.46 2.90928L257.2 2.91554C256.983 2.91554 256.843 2.93014 256.78 2.95933C256.76 3.39312 256.75 3.77268 256.75 4.09802L256.768 7.32013V9.12826C256.768 9.35766 256.774 9.51199 256.786 9.59124C256.809 9.62044 256.878 9.64129 256.993 9.65381L257.265 9.6976C257.379 9.71429 257.489 9.73306 257.596 9.75391L257.814 9.80396C257.866 9.8123 257.909 9.83107 257.945 9.86027C257.956 9.9562 257.962 10.0209 257.962 10.0542C257.962 10.1084 257.954 10.1835 257.939 10.2795L257.572 10.2857C257.422 10.2857 257.211 10.2732 256.94 10.2482L256.496 10.2419L256.195 10.2106L255.574 10.2044C255.416 10.2044 255.235 10.219 255.03 10.2482L254.646 10.2795H254.013Z" fill="white"/>
<path d="M264.4 2.62148L264.394 2.14599L265.807 2.23983L266.44 2.23358H266.67C266.911 2.23358 267.287 2.21898 267.799 2.18978C268.091 2.16893 268.274 2.1585 268.349 2.1585C268.846 2.1585 269.22 2.1877 269.472 2.24609C269.859 2.32951 270.164 2.46298 270.389 2.64651C270.617 2.83003 270.812 3.09281 270.974 3.43483C271.139 3.77268 271.222 4.08759 271.222 4.37956C271.222 5.10532 271.005 5.69552 270.572 6.15016C270.142 6.60063 269.598 6.82586 268.94 6.82586C268.712 6.82586 268.493 6.79666 268.284 6.73827C268.079 6.67987 267.886 6.59228 267.705 6.4755C267.685 6.35454 267.675 6.1877 267.675 5.97497C267.77 5.98332 267.854 5.98957 267.929 5.99374C268.008 5.99791 268.077 6 268.136 6C268.471 6 268.753 5.90198 268.982 5.70594C269.285 5.45151 269.437 5.03858 269.437 4.46715C269.437 4.05839 269.37 3.72471 269.236 3.46611C269.106 3.20334 268.95 3.02607 268.769 2.93431C268.517 2.80918 268.233 2.74661 267.918 2.74661C267.622 2.74661 267.411 2.79249 267.285 2.88425C267.253 2.93848 267.23 2.99062 267.214 3.04067L267.255 5.98749L267.244 6.23775L267.261 6.50052C267.265 6.55892 267.267 6.64442 267.267 6.75704V7.27007L267.273 8.08968L267.261 9.06569C267.261 9.20334 267.273 9.38895 267.297 9.62252L268.473 9.77894C268.489 9.87904 268.497 9.95829 268.497 10.0167C268.497 10.0792 268.487 10.1668 268.467 10.2795C268.369 10.2961 268.294 10.3045 268.243 10.3045C268.12 10.3045 267.89 10.2899 267.551 10.2607C267.212 10.2273 266.826 10.2106 266.392 10.2106C265.904 10.2106 265.439 10.244 264.997 10.3107C264.922 10.3233 264.804 10.3337 264.642 10.342C264.627 10.2211 264.619 10.1314 264.619 10.073C264.619 10.0355 264.623 9.97706 264.631 9.89781L264.991 9.77268C265.24 9.69343 265.454 9.5975 265.636 9.48488C265.671 9.36392 265.689 9.25339 265.689 9.15329C265.689 9.11157 265.687 9.06361 265.683 9.00939C265.679 8.88008 265.677 8.69864 265.677 8.46507L265.659 6.70699L265.594 4.72367C265.567 3.78102 265.545 3.27216 265.529 3.19708C265.502 3.07612 265.454 2.98227 265.387 2.91554C265.32 2.84463 265.208 2.79458 265.05 2.76538C264.723 2.70699 264.506 2.65902 264.4 2.62148Z" fill="white"/>
<path d="M272.091 6.15016C272.091 5.63295 272.186 5.11366 272.375 4.59228C272.513 4.21689 272.706 3.87278 272.954 3.55996C273.203 3.24713 273.514 2.96976 273.888 2.72784C274.263 2.48175 274.645 2.30657 275.035 2.20229C275.425 2.09385 275.861 2.03962 276.342 2.03962C277.161 2.03962 277.873 2.20229 278.476 2.52763C279.079 2.85297 279.554 3.29301 279.9 3.84776C280.35 4.56934 280.574 5.32638 280.574 6.11887C280.574 7.29927 280.194 8.31074 279.433 9.15329C278.677 9.99583 277.622 10.4171 276.271 10.4171C275.936 10.4171 275.622 10.3942 275.331 10.3483C275.11 10.3149 274.917 10.269 274.751 10.2106C274.452 10.1064 274.284 10.0459 274.249 10.0292C273.819 9.77059 273.474 9.50574 273.214 9.23462C272.954 8.9635 272.734 8.65693 272.552 8.31491C272.454 8.12304 272.341 7.77685 272.215 7.27633C272.133 6.95516 272.091 6.57977 272.091 6.15016ZM276.117 2.65902C275.774 2.65902 275.471 2.74453 275.207 2.91554C274.943 3.08238 274.744 3.26799 274.61 3.47237C274.385 3.81856 274.225 4.19812 274.131 4.61105C274.036 5.01981 273.989 5.51825 273.989 6.10636C273.989 6.46507 274.003 6.72159 274.03 6.87591C274.038 6.92596 274.05 7.01147 274.066 7.13243C274.101 7.44108 274.143 7.66632 274.19 7.80813C274.359 8.33785 274.479 8.66528 274.55 8.79041C274.669 9.00313 274.844 9.21376 275.077 9.42231C275.195 9.53076 275.366 9.63087 275.591 9.72263C275.816 9.81022 276.04 9.85401 276.265 9.85401C276.69 9.85401 277.085 9.74974 277.447 9.54119C277.814 9.32847 278.107 8.96976 278.328 8.46507C278.549 7.96038 278.659 7.30344 278.659 6.49427C278.659 6.16058 278.637 5.70803 278.594 5.1366L278.564 5.01773C278.553 4.98436 278.533 4.89885 278.505 4.76121C278.359 4.07716 278.08 3.55579 277.666 3.19708C277.256 2.83837 276.74 2.65902 276.117 2.65902Z" fill="white"/>
<path d="M288.461 4.31074L288.212 4.32325C288.161 4.32325 288.094 4.31908 288.011 4.31074C287.976 4.23149 287.929 4.10845 287.869 3.94161L287.639 3.49739C287.54 3.30136 287.412 3.10949 287.255 2.92179C287.195 2.89677 287.069 2.88008 286.876 2.87174L285.522 2.79041L284.718 2.80292L284.37 2.80918C284.342 2.87174 284.328 2.95725 284.328 3.06569L284.334 6.01251L284.322 6.41919L284.34 6.78832L284.364 7.24505C284.364 7.36184 284.356 7.55579 284.34 7.8269C284.332 7.9562 284.328 8.06465 284.328 8.15224L284.352 8.66528L284.346 8.86549C284.358 9.05318 284.364 9.18874 284.364 9.27216C284.364 9.35141 284.378 9.42649 284.405 9.49739C284.437 9.51825 284.557 9.55579 284.766 9.61001L284.955 9.66632C285.069 9.69969 285.164 9.72054 285.239 9.72888C285.377 9.7414 285.465 9.76851 285.505 9.81022C285.544 9.84776 285.564 9.92701 285.564 10.048C285.564 10.2273 285.507 10.317 285.392 10.317C285.349 10.317 285.178 10.3024 284.878 10.2732L284.565 10.2607L284.488 10.2544C284.346 10.2461 284.226 10.2419 284.127 10.2419L283.501 10.2544H282.655L281.851 10.292L281.627 10.2982C281.587 10.2982 281.55 10.2878 281.514 10.2669C281.51 10.2002 281.508 10.1502 281.508 10.1168C281.508 10.0542 281.512 9.9708 281.52 9.86653C281.56 9.82065 281.656 9.77894 281.81 9.7414C281.893 9.72054 281.981 9.68926 282.076 9.64755L282.301 9.55996C282.478 9.49739 282.58 9.45151 282.608 9.42231C282.636 9.39312 282.661 9.28259 282.685 9.09072C282.709 8.89468 282.72 8.75495 282.72 8.67153L282.703 7.35141L282.691 6.55057L282.703 5.90615L282.697 5.28676C282.697 4.96142 282.685 4.51721 282.661 3.95412L282.673 3.1658C282.673 3.01564 282.653 2.92179 282.614 2.88425C282.578 2.84672 282.484 2.82795 282.33 2.82795C282.275 2.82795 282.115 2.80501 281.851 2.75912C281.591 2.70907 281.447 2.6757 281.42 2.65902C281.392 2.6048 281.378 2.48175 281.378 2.28989C281.378 2.24818 281.382 2.20438 281.39 2.1585L281.556 2.15224C281.631 2.15224 281.804 2.16267 282.076 2.18352L283.784 2.25235L286.114 2.23983L286.9 2.22106C287.428 2.22106 287.911 2.25235 288.348 2.31491C288.419 2.38582 288.455 2.49844 288.455 2.65276L288.461 4.31074Z" fill="white"/>
<path d="M288.756 2.62148L288.75 2.14599L290.163 2.23983L290.796 2.23358H291.026C291.267 2.23358 291.643 2.21898 292.155 2.18978C292.447 2.16893 292.63 2.1585 292.705 2.1585C293.202 2.1585 293.576 2.1877 293.828 2.24609C294.215 2.32951 294.52 2.46298 294.745 2.64651C294.973 2.83003 295.168 3.09281 295.33 3.43483C295.495 3.77268 295.578 4.08759 295.578 4.37956C295.578 5.10532 295.361 5.69552 294.928 6.15016C294.498 6.60063 293.954 6.82586 293.296 6.82586C293.068 6.82586 292.849 6.79666 292.64 6.73827C292.435 6.67987 292.242 6.59228 292.061 6.4755C292.041 6.35454 292.031 6.1877 292.031 5.97497C292.126 5.98332 292.211 5.98957 292.285 5.99374C292.364 5.99791 292.433 6 292.492 6C292.827 6 293.109 5.90198 293.338 5.70594C293.641 5.45151 293.793 5.03858 293.793 4.46715C293.793 4.05839 293.726 3.72471 293.592 3.46611C293.462 3.20334 293.306 3.02607 293.125 2.93431C292.873 2.80918 292.589 2.74661 292.274 2.74661C291.978 2.74661 291.767 2.79249 291.641 2.88425C291.61 2.93848 291.586 2.99062 291.57 3.04067L291.611 5.98749L291.6 6.23775L291.617 6.50052C291.621 6.55892 291.623 6.64442 291.623 6.75704V7.27007L291.629 8.08968L291.617 9.06569C291.617 9.20334 291.629 9.38895 291.653 9.62252L292.829 9.77894C292.845 9.87904 292.853 9.95829 292.853 10.0167C292.853 10.0792 292.843 10.1668 292.823 10.2795C292.725 10.2961 292.65 10.3045 292.599 10.3045C292.477 10.3045 292.246 10.2899 291.907 10.2607C291.568 10.2273 291.182 10.2106 290.748 10.2106C290.26 10.2106 289.795 10.244 289.353 10.3107C289.278 10.3233 289.16 10.3337 288.999 10.342C288.983 10.2211 288.975 10.1314 288.975 10.073C288.975 10.0355 288.979 9.97706 288.987 9.89781L289.347 9.77268C289.596 9.69343 289.81 9.5975 289.992 9.48488C290.027 9.36392 290.045 9.25339 290.045 9.15329C290.045 9.11157 290.043 9.06361 290.039 9.00939C290.035 8.88008 290.033 8.69864 290.033 8.46507L290.015 6.70699L289.95 4.72367C289.923 3.78102 289.901 3.27216 289.885 3.19708C289.858 3.07612 289.81 2.98227 289.743 2.91554C289.676 2.84463 289.564 2.79458 289.406 2.76538C289.079 2.70699 288.863 2.65902 288.756 2.62148Z" fill="white"/>
<path d="M295.761 10.3045L295.773 9.87904C295.848 9.85401 295.98 9.82273 296.169 9.78519C296.473 9.72263 296.656 9.66632 296.719 9.61627C296.786 9.56621 296.867 9.44526 296.962 9.25339L298.156 5.94369L299.557 2.05214C299.687 2.05631 299.811 2.05839 299.929 2.05839H300.195L300.248 2.17101L301.277 4.7487C301.51 5.2951 301.718 5.8269 301.904 6.34411C302.089 6.85714 302.249 7.27633 302.383 7.60167C302.461 7.79771 302.57 8.09176 302.708 8.48384C302.779 8.69656 302.887 8.9635 303.033 9.28467C303.112 9.45985 303.171 9.56204 303.21 9.59124C303.281 9.65381 303.395 9.69552 303.553 9.71637C303.715 9.73723 303.888 9.78519 304.073 9.86027C304.093 9.99791 304.103 10.1001 304.103 10.1668C304.103 10.196 304.101 10.2419 304.097 10.3045C303.805 10.3045 303.484 10.2899 303.133 10.2607C302.783 10.2315 302.467 10.2169 302.187 10.2169C301.876 10.2169 301.651 10.2211 301.514 10.2294L300.509 10.2857L300.219 10.2982C300.219 10.1522 300.225 10.0125 300.237 9.87904L300.893 9.72888C301.09 9.67466 301.204 9.63295 301.236 9.60375C301.275 9.56204 301.295 9.51408 301.295 9.45985C301.295 9.40563 301.285 9.34932 301.265 9.29093L301.029 8.67779L300.562 7.45151L298.303 7.44526C298.221 7.64546 298.049 8.13556 297.789 8.91554C297.714 9.1366 297.677 9.28676 297.677 9.36601C297.677 9.47445 297.704 9.55162 297.76 9.5975C297.85 9.67675 298.024 9.73306 298.28 9.76642C298.315 9.77477 298.455 9.79771 298.7 9.83525C298.704 9.9854 298.706 10.0897 298.706 10.1481C298.706 10.194 298.702 10.2419 298.694 10.292C298.449 10.292 297.866 10.2565 296.944 10.1856L296.701 10.2294C296.41 10.2795 296.132 10.3045 295.868 10.3045H295.761ZM298.54 6.78832C299.462 6.80083 300.006 6.80709 300.172 6.80709L300.319 6.80083C300.201 6.42961 300.047 5.99791 299.858 5.50574C299.669 5.00938 299.515 4.63191 299.397 4.37331L298.54 6.78832Z" fill="white"/>
<path d="M304.103 10.2982L304.121 9.87278C304.613 9.80605 304.927 9.69969 305.061 9.5537C305.147 9.4536 305.214 9.19291 305.262 8.77164L305.338 6.54432L305.427 4.27946C305.435 4.14181 305.439 4.05839 305.439 4.0292C305.439 3.44108 305.405 3.10115 305.338 3.00938C305.275 2.91762 305.023 2.82795 304.582 2.74035C304.471 2.71533 304.385 2.69447 304.322 2.67779C304.314 2.57351 304.31 2.48592 304.31 2.41502V2.22106C304.456 2.20855 304.627 2.20229 304.824 2.20229L306.556 2.26486C306.596 2.26903 306.651 2.2732 306.722 2.27737L306.994 2.28989C307.061 2.37331 307.128 2.48384 307.195 2.62148C307.34 2.92596 307.534 3.37226 307.774 3.96038L307.839 4.1293L308.761 6.25026C308.781 6.30031 308.812 6.37331 308.856 6.46924C308.915 6.6194 308.976 6.7633 309.039 6.90094C309.102 7.03441 309.167 7.18248 309.234 7.34515C309.305 7.50782 309.372 7.65172 309.435 7.77685C309.49 7.67675 309.544 7.56622 309.595 7.44526C309.752 7.06152 309.906 6.70907 310.056 6.3879C310.316 5.82065 310.669 4.95308 311.114 3.78519C311.185 3.5975 311.301 3.31595 311.463 2.94056C311.628 2.561 311.719 2.36079 311.735 2.33994C311.77 2.30657 311.841 2.28989 311.948 2.28989C311.987 2.28989 312.048 2.2878 312.131 2.28363C312.336 2.27112 312.582 2.26069 312.87 2.25235C313.284 2.24818 313.615 2.23566 313.863 2.21481C314.115 2.18978 314.257 2.17727 314.289 2.17727C314.328 2.17727 314.375 2.18144 314.431 2.18978C314.434 2.24818 314.436 2.29406 314.436 2.32742L314.425 2.51512C314.425 2.55266 314.423 2.60897 314.419 2.68405C314.048 2.74244 313.747 2.83003 313.514 2.94682C313.353 3.03024 313.272 3.13452 313.272 3.25965V3.35349L313.372 5.26799C313.384 5.44317 313.416 6.31283 313.467 7.87696C313.479 8.22732 313.504 8.67153 313.544 9.20959C313.552 9.27633 313.556 9.32847 313.556 9.36601C313.56 9.46611 313.579 9.53076 313.615 9.55996C313.654 9.58916 314.009 9.71011 314.679 9.92284C314.683 9.98957 314.685 10.0396 314.685 10.073C314.685 10.1606 314.683 10.2482 314.679 10.3358C314.572 10.3358 314.304 10.3128 313.875 10.2669C313.445 10.2169 313.043 10.1919 312.669 10.1919C312.097 10.1919 311.542 10.2169 311.002 10.2669C310.931 10.2753 310.862 10.2815 310.795 10.2857L310.807 9.85401C310.968 9.78728 311.183 9.73097 311.451 9.68509C311.64 9.65172 311.76 9.59541 311.812 9.51616C311.863 9.43691 311.889 9.21585 311.889 8.85297C311.889 8.71533 311.887 8.59437 311.883 8.49009C311.863 8.05214 311.851 7.44317 311.847 6.66319L311.747 4.45464C311.735 4.14181 311.721 3.92492 311.705 3.80396L310.233 7.38269C310.198 7.46611 310.145 7.58707 310.074 7.74557C309.983 7.94995 309.922 8.08968 309.89 8.16475C309.587 8.93639 309.376 9.52659 309.258 9.93535C309.226 10.0396 309.179 10.1752 309.116 10.342L308.661 10.3358L308.342 9.37852C308.247 9.12826 308.085 8.7487 307.857 8.23983C307.723 7.94369 307.618 7.70386 307.543 7.52033C307.508 7.44526 307.482 7.38895 307.467 7.35141L307.396 7.19499C307.392 7.16997 307.386 7.14911 307.378 7.13243L306.497 5.12409L305.959 3.90407L305.912 6.8634L305.87 8.78415C305.87 9.10115 305.926 9.32847 306.036 9.46611C306.15 9.59958 306.393 9.71429 306.763 9.81022L307.047 9.8853V10.342C306.818 10.3379 306.572 10.3212 306.308 10.292C306.048 10.2586 305.701 10.2419 305.267 10.2419C305.177 10.2419 304.789 10.2607 304.103 10.2982Z" fill="white"/>
<path d="M315.205 10.2982L315.223 9.87278C315.715 9.80605 316.029 9.69969 316.163 9.5537C316.249 9.4536 316.316 9.19291 316.364 8.77164L316.44 6.54432L316.529 4.27946C316.537 4.14181 316.541 4.05839 316.541 4.0292C316.541 3.44108 316.508 3.10115 316.44 3.00938C316.377 2.91762 316.125 2.82795 315.684 2.74035C315.573 2.71533 315.487 2.69447 315.424 2.67779C315.416 2.57351 315.412 2.48592 315.412 2.41502V2.22106C315.558 2.20855 315.729 2.20229 315.926 2.20229L317.658 2.26486C317.698 2.26903 317.753 2.2732 317.824 2.27737L318.096 2.28989C318.163 2.37331 318.23 2.48384 318.297 2.62148C318.443 2.92596 318.636 3.37226 318.876 3.96038L318.941 4.1293L319.863 6.25026C319.883 6.30031 319.915 6.37331 319.958 6.46924C320.017 6.6194 320.078 6.7633 320.141 6.90094C320.204 7.03441 320.269 7.18248 320.336 7.34515C320.407 7.50782 320.474 7.65172 320.537 7.77685C320.592 7.67675 320.646 7.56622 320.697 7.44526C320.855 7.06152 321.008 6.70907 321.158 6.3879C321.418 5.82065 321.771 4.95308 322.216 3.78519C322.287 3.5975 322.403 3.31595 322.565 2.94056C322.731 2.561 322.821 2.36079 322.837 2.33994C322.872 2.30657 322.943 2.28989 323.05 2.28989C323.089 2.28989 323.15 2.2878 323.233 2.28363C323.438 2.27112 323.684 2.26069 323.972 2.25235C324.386 2.24818 324.717 2.23566 324.965 2.21481C325.217 2.18978 325.359 2.17727 325.391 2.17727C325.43 2.17727 325.477 2.18144 325.533 2.18978C325.537 2.24818 325.539 2.29406 325.539 2.32742L325.527 2.51512C325.527 2.55266 325.525 2.60897 325.521 2.68405C325.15 2.74244 324.849 2.83003 324.616 2.94682C324.455 3.03024 324.374 3.13452 324.374 3.25965V3.35349L324.474 5.26799C324.486 5.44317 324.518 6.31283 324.569 7.87696C324.581 8.22732 324.607 8.67153 324.646 9.20959C324.654 9.27633 324.658 9.32847 324.658 9.36601C324.662 9.46611 324.681 9.53076 324.717 9.55996C324.756 9.58916 325.111 9.71011 325.781 9.92284C325.785 9.98957 325.787 10.0396 325.787 10.073C325.787 10.1606 325.785 10.2482 325.781 10.3358C325.675 10.3358 325.407 10.3128 324.977 10.2669C324.547 10.2169 324.145 10.1919 323.771 10.1919C323.2 10.1919 322.644 10.2169 322.104 10.2669C322.033 10.2753 321.964 10.2815 321.897 10.2857L321.909 9.85401C322.07 9.78728 322.285 9.73097 322.553 9.68509C322.742 9.65172 322.863 9.59541 322.914 9.51616C322.965 9.43691 322.991 9.21585 322.991 8.85297C322.991 8.71533 322.989 8.59437 322.985 8.49009C322.965 8.05214 322.953 7.44317 322.949 6.66319L322.849 4.45464C322.837 4.14181 322.823 3.92492 322.807 3.80396L321.335 7.38269C321.3 7.46611 321.247 7.58707 321.176 7.74557C321.085 7.94995 321.024 8.08968 320.992 8.16475C320.689 8.93639 320.478 9.52659 320.36 9.93535C320.328 10.0396 320.281 10.1752 320.218 10.342L319.763 10.3358L319.444 9.37852C319.349 9.12826 319.187 8.7487 318.959 8.23983C318.825 7.94369 318.72 7.70386 318.646 7.52033C318.61 7.44526 318.584 7.38895 318.569 7.35141L318.498 7.19499C318.494 7.16997 318.488 7.14911 318.48 7.13243L317.599 5.12409L317.061 3.90407L317.014 6.8634L316.973 8.78415C316.973 9.10115 317.028 9.32847 317.138 9.46611C317.252 9.59958 317.495 9.71429 317.865 9.81022L318.149 9.8853V10.342C317.92 10.3379 317.674 10.3212 317.41 10.292C317.15 10.2586 316.803 10.2419 316.37 10.2419C316.279 10.2419 315.891 10.2607 315.205 10.2982Z" fill="white"/>
</svg>
